<svg xmlns="http://www.w3.org/2000/svg" viewBox="0 0 112.12 112.12"><defs><style>.cls-1{fill:#e5e5e5;}.cls-2{fill:#fbcb99;}.cls-3{fill:#eaa96e;}.cls-4{fill:#694b4b;}.cls-5{fill:#563939;}.cls-6{fill:#3c6f99;}.cls-7{fill:#6598cb;}.cls-8{fill:#c62e1e;}.cls-9{fill:#ef4c35;}</style></defs><title>auph</title><g id="Capa_2" data-name="Capa 2"><g id="Capa_1-2" data-name="Capa 1"><circle class="cls-1" cx="56.06" cy="56.06" r="56.06"/><path class="cls-2" d="M67.39,36.68c0,.23,0,.46,0,.69a11.16,11.16,0,0,1-.16,1.31,10.86,10.86,0,0,1-.86,2.73,11.33,11.33,0,0,1-20.71-.26,10.85,10.85,0,0,1-.74-2.47,11.26,11.26,0,0,1-.16-1.3c0-.23,0-.47,0-.7a11.34,11.34,0,1,1,22.67,0Z"/><path class="cls-3" d="M67.21,38.69a10.92,10.92,0,0,1-.86,2.72c-9.47.05-13.61-4.16-13.61-4.16a17.09,17.09,0,0,1-7.1,3.9,10.85,10.85,0,0,1-.74-2.47,11.33,11.33,0,0,1,22.31,0Z"/><path class="cls-4" d="M67.39,36.68c0,.23,0,.46,0,.69-10.19.37-14.63-4.14-14.63-4.14a13.71,13.71,0,0,1-2.05,1.63,19.91,19.91,0,0,1-5.95,2.52c0-.23,0-.47,0-.7a11.34,11.34,0,1,1,22.67,0Z"/><path class="cls-5" d="M67.39,36.68c0,.23,0,.46,0,.69-10.19.37-14.63-4.14-14.63-4.14a13.71,13.71,0,0,1-2.05,1.63,11.35,11.35,0,0,1,15-4.22A11.31,11.31,0,0,1,67.39,36.68Z"/><path class="cls-6" d="M73.48,63.54H38.77a17.46,17.46,0,0,1,34.71,0Z"/><path class="cls-7" d="M72.45,63.54H39.79a17.47,17.47,0,0,1,32.66,0Z"/><path class="cls-3" d="M62,49.25l-1.92,2.19L56,56.12l-4.43-4.45-2.42-2.42A13.94,13.94,0,0,1,62,49.25Z"/><path class="cls-2" d="M60.09,51.44,56,56.12l-4.43-4.45A14.23,14.23,0,0,1,60.09,51.44Z"/><polygon class="cls-8" points="86.76 65.93 84.69 67.99 82.32 70.37 79.72 67.77 77.77 69.71 67.23 59.08 64.94 56.77 71.27 50.44 86.76 65.93"/><path class="cls-9" d="M84.7,68l-2.38,2.38-2.6-2.6-2,1.94L67.23,59.08h0a6.06,6.06,0,0,1,8.56,0Z"/><polygon class="cls-8" points="25.44 65.93 27.5 67.99 29.88 70.37 32.48 67.77 34.43 69.71 44.96 59.08 47.25 56.77 40.92 50.44 25.44 65.93"/><path class="cls-9" d="M27.5,68l2.38,2.38,2.6-2.6,2,1.94L45,59.08h0a6,6,0,0,0-8.55,0Z"/><polygon class="cls-2" points="69.92 72.52 72.17 74.76 72.02 74.92 70.13 76.8 62.31 84.62 61.11 83.42 58.45 86.08 55.76 83.39 52.6 86.55 50.31 84.26 49.77 84.8 40.28 75.31 42.47 73.12 36.62 67.27 46.41 56.53 65.22 56.53 75.57 66.87 69.92 72.52"/><path class="cls-3" d="M50.26,57.46l-6.88,6.89a3.34,3.34,0,0,0,0,4.72l1.79,1.79L42.53,73.5l-6.18-6.18L46.7,57Z"/><path class="cls-3" d="M67.61,70.28l.69-.7a4.1,4.1,0,0,0,0-5.83L62,57.45l3.21-.74L75.64,67.13l-5.7,5.71Z"/><path class="cls-3" d="M45.44,79.94l2.16-2.16a2.05,2.05,0,0,0,0-2.9h0l.94-.93,2.67,2.66-4.5,4.5Z"/><path class="cls-3" d="M48.51,83l2.16-2.16a2.05,2.05,0,0,0,0-2.9h0l.94-.93,2.67,2.66-4.5,4.5Z"/><path class="cls-3" d="M42.53,77l2.16-2.16a2.05,2.05,0,0,0,0-2.9h0l.94-.94,2.66,2.67L43.8,78.19Z"/><path class="cls-3" d="M63.83,81.23l-1,1-3.76-3.76a1.39,1.39,0,0,1,0-2h0l1.51.47C60.65,77,63.83,81.23,63.83,81.23Z"/><path class="cls-3" d="M62.39,73.18h0a1.6,1.6,0,0,0,0,2.27l3.85,3.85L68,77.58l-4.49-4.49Z"/><path class="cls-3" d="M51.69,84.81l1.52-1.52a1.16,1.16,0,0,0,0-1.64h0l2.38-2.39,4.3,4.3-2,2-2.12-2.12-2.67,2.66Z"/><path class="cls-3" d="M53.15,60.05h0a2,2,0,0,1,0,2.81l-3.38,3.39-2.1-2.1,3.78-3.77"/><path class="cls-3" d="M72,74.92,70.13,76.8,63,69.66a3.25,3.25,0,0,0-4.58,0L57.09,71a3.23,3.23,0,0,1-4.58,0h0l-.57-.57,7.79-7.79Z"/><path d="M68.7,52a18.82,18.82,0,0,0-7.64-4.31,12.1,12.1,0,1,0-10.14,0,18.45,18.45,0,0,0-7.59,4.27l-2.51-2.5L24.48,65.76l5.32,5.31,2.31-2.32,2,2,2.41-2.41,4.89,4.89-2.19,2.19,4.38,4.39h0l3.11,3.11h0l3,3,.7-.69,2.36,2.35,2.8-2.8,2.63,2.64,2.65-2.64,1,1,3.88-3.87h0L69,78.64h0l4-4L71,72.79l4.43-4.43L77.9,70.8l2-2,2.32,2.32,5.31-5.31L71.17,49.48Zm-6-1.77a16.51,16.51,0,0,1,4.67,3.05l-2.62,2.63h-7Zm-6.74,5L51.06,49.5A17,17,0,0,1,56,48.76a16.62,16.62,0,0,1,4.92.75Zm0-28.8A10.31,10.31,0,0,1,66.29,36.65s0,.07,0,.11c-6.82-.18-10.88-2.47-12.48-3.59a9.73,9.73,0,0,0,1.13-1.65l-1.64-.79s-1.83,3.66-7.58,5.7A10.31,10.31,0,0,1,56,26.36Zm-10.16,12a18.12,18.12,0,0,0,6.69-3.81c1.67,1.24,6,3.85,13.57,4.07a10.29,10.29,0,0,1-20.26-.26Zm3.4,11.87,5,5.69H47.27l-2.65-2.66A16.63,16.63,0,0,1,49.24,50.18ZM35.9,66.39h0l-1.8,1.8-.7-.71,7.7-7.7-1.29-1.29-8.34,8.35h0L29.8,68.5l-2.75-2.74L40.82,52l4.74,4.74Zm7.69,10.85-1.81-1.82,3.87-3.86,1.81,1.81Zm3,3-1.71-1.71,3.87-3.87,1.71,1.72Zm3,3L48,81.63l3.87-3.87,1.61,1.61ZM52.75,85l-1.07-1.07,2.47-2.48,1.07,1.08Zm5.43-.16-1.35-1.35,1-1-2.36-2.36.39-.4.88.88h0l2.83,2.83ZM69.75,71.51,59.59,61.34l-7.08,7.08-3.87-3.86,4.51-4.51-1.28-1.29-5.8,5.8L52.51,71l7.08-7.08,7.94,8,2.84,2.83-2,2L63.67,71.9l-1.28,1.28,4.74,4.75-2,2L60.37,75.2l-1.29,1.29,4.75,4.74-2,2L57.1,78.47l-1,1-3-3h0L50,73.37l-1.27-1.28L45.65,69l-3,3L37.8,67.06l9.37-9.38H64.79l9.39,9.4ZM82.2,68.57l-1.68-1.68h0l-8.34-8.34-1.29,1.29,7.71,7.7-.7.69-1.15-1.15h0L66.45,56.77l4.72-4.71L84.94,65.83Z"/><rect id="SVGCleanerId_0" data-name="SVGCleanerId 0" x="68.97" y="56.78" width="1.82" height="1.51" transform="translate(-20.22 66.26) rotate(-45)"/><rect x="41.36" y="56.56" width="1.51" height="1.82" transform="translate(-28.3 46.6) rotate(-44.99)"/><rect id="SVGCleanerId_1" data-name="SVGCleanerId 1" x="85.82" y="34.31" width="1.82" height="1.98"/><rect id="SVGCleanerId_2" data-name="SVGCleanerId 2" x="79.15" y="38.02" width="1.82" height="1.98"/><rect id="SVGCleanerId_3" data-name="SVGCleanerId 3" x="73.94" y="30.14" width="1.82" height="1.98"/><rect id="SVGCleanerId_4" data-name="SVGCleanerId 4" x="79.15" y="26.32" width="1.82" height="1.98"/><rect id="SVGCleanerId_5" data-name="SVGCleanerId 5" x="69.98" y="40.9" width="1.82" height="1.98"/><rect id="SVGCleanerId_6" data-name="SVGCleanerId 6" x="78.97" y="47.02" width="1.82" height="1.98"/><rect id="SVGCleanerId_7" data-name="SVGCleanerId 7" x="24.61" y="34.31" width="1.82" height="1.98"/><rect id="SVGCleanerId_8" data-name="SVGCleanerId 8" x="31.27" y="38.02" width="1.82" height="1.98"/><rect id="SVGCleanerId_9" data-name="SVGCleanerId 9" x="36.49" y="30.14" width="1.82" height="1.98"/><rect id="SVGCleanerId_10" data-name="SVGCleanerId 10" x="31.27" y="26.32" width="1.82" height="1.98"/><rect id="SVGCleanerId_11" data-name="SVGCleanerId 11" x="40.45" y="40.9" width="1.82" height="1.98"/><rect id="SVGCleanerId_12" data-name="SVGCleanerId 12" x="31.45" y="47.02" width="1.82" height="1.98"/><path d="M68.7,52a18.82,18.82,0,0,0-7.64-4.31,12.1,12.1,0,1,0-10.14,0,18.45,18.45,0,0,0-7.59,4.27l-2.51-2.5L24.48,65.76l5.32,5.31,2.31-2.32,2,2,2.41-2.41,4.89,4.89-2.19,2.19,4.38,4.39h0l3.11,3.11h0l3,3,.7-.69,2.36,2.35,2.8-2.8,2.63,2.64,2.65-2.64,1,1,3.88-3.87h0L69,78.64h0l4-4L71,72.79l4.43-4.43L77.9,70.8l2-2,2.32,2.32,5.31-5.31L71.17,49.48Zm-3.91,3.91h-7l5-5.68a16.51,16.51,0,0,1,4.67,3.05ZM56,26.36A10.31,10.31,0,0,1,66.29,36.65s0,.07,0,.11c-6.82-.18-10.88-2.47-12.48-3.59a9.73,9.73,0,0,0,1.13-1.65l-1.64-.79s-1.83,3.66-7.58,5.7A10.31,10.31,0,0,1,56,26.36Zm-10.16,12a18.12,18.12,0,0,0,6.69-3.81c1.67,1.24,6,3.85,13.57,4.07a10.29,10.29,0,0,1-20.26-.26Zm15.08,11.2L56,55.16,51.06,49.5A17,17,0,0,1,56,48.76,16.62,16.62,0,0,1,60.92,49.51Zm-11.68.67,5,5.69H47.27l-2.65-2.66A16.63,16.63,0,0,1,49.24,50.18ZM33.4,67.47l7.7-7.7-1.29-1.29-8.34,8.35h0L29.8,68.5l-2.75-2.74L40.82,52l4.74,4.74L35.9,66.39h0l-1.8,1.8Zm12.25,4.09,1.81,1.81-3.87,3.87-1.81-1.82Zm3.11,3.1,1.71,1.72L46.6,80.24l-1.71-1.71Zm3.09,3.1,1.61,1.61-3.87,3.87L48,81.63Zm-.17,6.17,2.47-2.48,1.07,1.08L52.75,85Zm7.85-.44-1.35,1.35-1.35-1.35,1-1-2.36-2.36.39-.4.88.88h0Zm10.22-12L59.59,61.34l-7.08,7.08-3.87-3.86,4.51-4.51-1.28-1.29-5.8,5.8L52.51,71l7.08-7.08,7.94,8,2.84,2.83-2,2L63.67,71.9l-1.28,1.28,4.74,4.75-2,2L60.37,75.2l-1.29,1.29,4.75,4.74-2,2L57.1,78.47l-1,1-3-3h0L50,73.37l-1.27-1.28L45.65,69l-3,3L37.8,67.06l9.37-9.38H64.79l9.39,9.4ZM82.2,68.57l-1.68-1.68h0l-8.34-8.34-1.29,1.29,7.71,7.7-.7.69-1.15-1.15h0L66.45,56.77l4.72-4.71L84.94,65.83Z"/><rect id="SVGCleanerId_0-2" data-name="SVGCleanerId 0" x="68.97" y="56.78" width="1.82" height="1.51" transform="translate(-20.22 66.26) rotate(-45)"/><rect x="41.36" y="56.55" width="1.51" height="1.82" transform="translate(-28.29 46.6) rotate(-44.99)"/><rect id="SVGCleanerId_1-2" data-name="SVGCleanerId 1" x="85.82" y="34.31" width="1.82" height="1.98"/><rect id="SVGCleanerId_2-2" data-name="SVGCleanerId 2" x="79.15" y="38.02" width="1.82" height="1.98"/><rect id="SVGCleanerId_3-2" data-name="SVGCleanerId 3" x="73.94" y="30.14" width="1.82" height="1.98"/><rect id="SVGCleanerId_4-2" data-name="SVGCleanerId 4" x="79.15" y="26.32" width="1.82" height="1.98"/><rect id="SVGCleanerId_5-2" data-name="SVGCleanerId 5" x="69.98" y="40.9" width="1.82" height="1.98"/><rect id="SVGCleanerId_6-2" data-name="SVGCleanerId 6" x="78.97" y="47.02" width="1.82" height="1.98"/><rect id="SVGCleanerId_7-2" data-name="SVGCleanerId 7" x="24.61" y="34.31" width="1.82" height="1.98"/><rect id="SVGCleanerId_8-2" data-name="SVGCleanerId 8" x="31.27" y="38.02" width="1.82" height="1.98"/><rect id="SVGCleanerId_9-2" data-name="SVGCleanerId 9" x="36.49" y="30.14" width="1.82" height="1.98"/><rect id="SVGCleanerId_10-2" data-name="SVGCleanerId 10" x="31.27" y="26.32" width="1.82" height="1.98"/><rect id="SVGCleanerId_11-2" data-name="SVGCleanerId 11" x="40.45" y="40.9" width="1.82" height="1.98"/><rect id="SVGCleanerId_12-2" data-name="SVGCleanerId 12" x="31.45" y="47.02" width="1.82" height="1.98"/></g></g></svg>