<svg xmlns="http://www.w3.org/2000/svg" viewBox="0 0 185 185"><defs><style>.cls-1{fill:#e5e5e5;}.cls-2{fill:#aab1ba;}.cls-3{fill:#ecf4f7;}.cls-4{fill:#ff7474;}</style></defs><title>ayuda_1</title><g id="Capa_2" data-name="Capa 2"><g id="Capa_1-2" data-name="Capa 1"><circle class="cls-1" cx="92.5" cy="92.5" r="92.5"/><path class="cls-2" d="M133.19,124.41a7,7,0,1,1-7,7,7,7,0,0,1,7-7"/><path class="cls-3" d="M133.19,89.63v3.48H103.63l-.52.17A32.48,32.48,0,0,0,96.5,82.85l.18-.17h29.55A7,7,0,0,1,133.19,89.63Z"/><path class="cls-3" d="M105.37,61.81v3.48H67.12V54.86H98.41A7,7,0,0,1,105.37,61.81Z"/><path class="cls-2" d="M103.11,93.28a34.26,34.26,0,0,1,2.26,12,33,33,0,1,1-33-33A32.54,32.54,0,0,1,96.5,82.85a34.56,34.56,0,0,1,6.61,10.43M53.9,123.71a26,26,0,1,0-7.65-18.43,26.2,26.2,0,0,0,7.65,18.43"/><path class="cls-4" d="M72.33,93.11a12.17,12.17,0,1,1-12.17,12.17A12.1,12.1,0,0,1,72.33,93.11"/><path d="M72.33,91.42a14,14,0,1,0,9.77,4.09A13.75,13.75,0,0,0,72.33,91.42Zm10.49,13.86A10.49,10.49,0,1,1,72.33,94.79,10.5,10.5,0,0,1,82.82,105.28Z"/><path d="M49.73,39.15h9.36l6.34,16V67a1.63,1.63,0,0,0,1.69,1.68,1.89,1.89,0,0,0,1.81-1.43l0-.12V56.54H98.59a5.34,5.34,0,0,1,5.27,5.27V63.6H74.25a1.69,1.69,0,1,0,0,3.37h31.29a1.63,1.63,0,0,0,1.69-1.68V61.81a8.66,8.66,0,0,0-8.64-8.64H68.36L61.79,36.82l0-.06a1.77,1.77,0,0,0-1.6-1H49.73a1.69,1.69,0,1,0,0,3.37Z"/><path d="M91.86,85.23a27.69,27.69,0,0,0-39.06,0l-.34.35a27.65,27.65,0,0,0,0,39.05l.34.35a27.67,27.67,0,0,0,39.06,0l.35-.35a27.68,27.68,0,0,0,0-39Zm-2.43,34.6a1.67,1.67,0,0,0-2.37,0,2.13,2.13,0,0,0,0,2.54l1.3,1.31a24.39,24.39,0,0,1-32.08,0l1.34-1.46a2.18,2.18,0,0,0,0-2.53,1.65,1.65,0,0,0-2.37,0l-1.3,1.3a24.41,24.41,0,0,1,0-32L55,90.18l0,0a1.67,1.67,0,0,0,2.37,0,2.15,2.15,0,0,0,0-2.55l-1.12-1.13a24.39,24.39,0,0,1,32,0l-1.24,1.13,0,0a2.15,2.15,0,0,0,0,2.55,1.65,1.65,0,0,0,2.35,0l1.29-1.17a24.39,24.39,0,0,1,0,32.08Z"/><path d="M134.87,122.85V89.63A8.65,8.65,0,0,0,126.23,81H104.67a1.69,1.69,0,0,0,0,3.37h21.56a5.34,5.34,0,0,1,5.27,5.27v1.79H109.72a1.69,1.69,0,1,0,0,3.37H131.5v28.06a8.8,8.8,0,0,0-7,8.51,8.64,8.64,0,1,0,17.28,0A8.8,8.8,0,0,0,134.87,122.85Zm-1.68,10.2a1.63,1.63,0,0,0,1.68-1.69v-5a5.19,5.19,0,1,1-3.37,0v5.08A1.63,1.63,0,0,0,133.19,133.05Z"/><path d="M72.33,70.56A34.65,34.65,0,1,0,96.9,80.71,34.49,34.49,0,0,0,72.33,70.56Zm31.35,34.72A31.35,31.35,0,1,1,72.33,73.93,31.38,31.38,0,0,1,103.68,105.28Z"/><rect x="124.94" y="103.54" width="3.56" height="3.56"/><rect x="124.94" y="96.8" width="3.56" height="3.56"/><rect x="139.94" y="112.13" width="3.56" height="3.56"/><rect x="140.05" y="119.35" width="3.56" height="3.56"/></g></g></svg>