<svg xmlns="http://www.w3.org/2000/svg" viewBox="0 0 112.12 112.12"><defs><style>.cls-1{fill:#e5e5e5;}.cls-2{fill:#fef0b6;}.cls-3{fill:#f4f8ff;}.cls-4{fill:#fee891;}.cls-5{fill:#fe7c7a;}</style></defs><title>cheques</title><g id="Capa_2" data-name="Capa 2"><g id="Capa_1-2" data-name="Capa 1"><circle class="cls-1" cx="56.06" cy="56.06" r="56.06"/><rect id="SVGCleanerId_1" data-name="SVGCleanerId 1" x="81.97" y="38.65" width="1.82" height="1.98"/><rect id="SVGCleanerId_2" data-name="SVGCleanerId 2" x="75.3" y="42.36" width="1.82" height="1.98"/><rect id="SVGCleanerId_4" data-name="SVGCleanerId 4" x="75.3" y="30.66" width="1.82" height="1.98"/><rect id="SVGCleanerId_1-2" data-name="SVGCleanerId 1" x="81.97" y="38.65" width="1.82" height="1.98"/><rect id="SVGCleanerId_2-2" data-name="SVGCleanerId 2" x="75.3" y="42.36" width="1.82" height="1.98"/><rect id="SVGCleanerId_4-2" data-name="SVGCleanerId 4" x="75.3" y="30.66" width="1.82" height="1.98"/><rect id="SVGCleanerId_1-3" data-name="SVGCleanerId 1" x="88.45" y="53.51" width="1.82" height="1.98"/><rect id="SVGCleanerId_2-3" data-name="SVGCleanerId 2" x="81.78" y="57.22" width="1.82" height="1.98"/><rect id="SVGCleanerId_4-3" data-name="SVGCleanerId 4" x="81.78" y="45.52" width="1.82" height="1.98"/><rect id="SVGCleanerId_1-4" data-name="SVGCleanerId 1" x="88.45" y="53.51" width="1.82" height="1.98"/><rect id="SVGCleanerId_2-4" data-name="SVGCleanerId 2" x="81.78" y="57.22" width="1.82" height="1.98"/><rect id="SVGCleanerId_4-4" data-name="SVGCleanerId 4" x="81.78" y="45.52" width="1.82" height="1.98"/><path class="cls-2" d="M37.25,75.47h0a3.55,3.55,0,0,1-3.56-3.55V47.06H40.8V71.92A3.55,3.55,0,0,1,37.25,75.47Z"/><path class="cls-3" d="M37.42,35.74V66.5a1.87,1.87,0,0,0,1.87,1.87H65.56a1.87,1.87,0,0,0,1.87-1.87V42.21l-8.34-8.34H39.29A1.87,1.87,0,0,0,37.42,35.74Z"/><path class="cls-4" d="M37.25,75.47H71.92a3.38,3.38,0,0,0,3.38-3.38V53H40.8V71.92a3.55,3.55,0,0,1-3.55,3.55"/><path class="cls-2" d="M67.43,42.21l-8.34-8.34v6.47A1.87,1.87,0,0,0,61,42.21Z"/><circle class="cls-5" cx="57.93" cy="64.23" r="6.6"/><path d="M75.3,52.13H40.8A.85.85,0,0,0,40,53V71.92a2.71,2.71,0,1,1-5.41,0v-24h2V66.5a.85.85,0,0,0,1.69,0V35.74a1,1,0,0,1,1-1h19v5.63A2.72,2.72,0,0,0,61,43.06h5.63v6a.85.85,0,0,0,1.69,0V42.21a.86.86,0,0,0-.25-.6l-8.34-8.34a.86.86,0,0,0-.6-.25H39.29a2.72,2.72,0,0,0-2.72,2.72V46.21H33.69a.85.85,0,0,0-.84.85V71.92a4.4,4.4,0,0,0,4.4,4.4H71.92a4.24,4.24,0,0,0,4.23-4.23V53A.85.85,0,0,0,75.3,52.13ZM59.94,40.34V35.91l5.45,5.46H61A1,1,0,0,1,59.94,40.34ZM74.45,72.09a2.54,2.54,0,0,1-2.53,2.54H40.71a4.42,4.42,0,0,0,.93-2.71V53.83H74.45Z"/><path d="M54.83,65.07h2.25v2.25a.85.85,0,0,0,1.69,0V65.07H61a.85.85,0,0,0,0-1.69H58.77V61.13a.85.85,0,0,0-1.69,0v2.25H54.83a.85.85,0,0,0,0,1.69Z"/><path d="M57.93,71.67a7.45,7.45,0,1,0-7.45-7.44A7.45,7.45,0,0,0,57.93,71.67Zm0-13.19a5.75,5.75,0,1,1-5.75,5.75A5.76,5.76,0,0,1,57.93,58.48Z"/><path d="M42.25,48.75H59.33a.85.85,0,1,0,0-1.69H42.25a.85.85,0,1,0,0,1.69Z"/><path d="M62.1,47.31a.87.87,0,0,0-.24.6.84.84,0,0,0,.84.84.84.84,0,0,0,.6-.25.82.82,0,0,0,.25-.59.85.85,0,0,0-.85-.85A.86.86,0,0,0,62.1,47.31Z"/><path d="M51,44.69h5.58a.85.85,0,1,0,0-1.69H51a.85.85,0,0,0,0,1.69Z"/><path d="M51,40.63h5.58a.85.85,0,1,0,0-1.69H51a.85.85,0,0,0,0,1.69Z"/><path d="M44.35,38.94a.85.85,0,0,0-.84.85V41H42.33a.85.85,0,1,0,0,1.69h1.18v1.19a.85.85,0,0,0,1.69,0V42.66h1.18a.85.85,0,1,0,0-1.69H45.2V39.79A.85.85,0,0,0,44.35,38.94Z"/></g></g></svg>