<svg xmlns="http://www.w3.org/2000/svg" viewBox="0 0 23.94 20.25"><defs><style>.cls-1{fill:#58585a;}</style></defs><title>down</title><g id="Capa_2" data-name="Capa 2"><g id="Capa_1-2" data-name="Capa 1"><path class="cls-1" d="M11.73,0A.76.76,0,0,0,11,.77v12l-2-2a.76.76,0,0,0-1.08,0,.77.77,0,0,0,0,1.09l3.31,3.31a.76.76,0,0,0,1.09,0l3.31-3.31a.77.77,0,0,0,0-1.09.76.76,0,0,0-1.08,0l-2,2V.77A.76.76,0,0,0,11.73,0Z"/><path class="cls-1" d="M8.78,6.79A6.86,6.86,0,1,0,6.43,20.22a.35.35,0,0,0,.11,0H19.08a5,5,0,0,0-.09-10h0a4.46,4.46,0,0,0-4.19-3,.77.77,0,1,0,0,1.53,2.92,2.92,0,0,1,2.91,2.92.77.77,0,0,0,.77.77.75.75,0,0,0,.75-.71,3.45,3.45,0,0,1-.13,6.89H6.86A5.33,5.33,0,1,1,8.35,8.27a.77.77,0,0,0,.43-1.48Z"/></g></g></svg>