<svg xmlns="http://www.w3.org/2000/svg" viewBox="0 0 112.12 112.12"><defs><style>.cls-1{fill:#e5e5e5;}.cls-2{fill:#c62e1e;}.cls-3{fill:#ef4c35;}.cls-4{fill:#ff7061;}.cls-5{fill:#eaa96e;}.cls-6{fill:#fbcb99;}.cls-7{fill:#694b4b;}.cls-8{fill:#563939;}.cls-9{fill:#aeb9cc;}.cls-10{fill:#c8d0e2;}.cls-11{fill:#4f3434;}.cls-12{fill:#f8ce19;}</style></defs><title>empleo</title><g id="Capa_2" data-name="Capa 2"><g id="Capa_1-2" data-name="Capa 1"><circle class="cls-1" cx="56.06" cy="56.06" r="56.06"/><path class="cls-2" d="M53.53,51.4a17.68,17.68,0,0,0-10-3h0A17.84,17.84,0,0,0,25.7,66.26V78.83l27.83-.36V51.4Z"/><path class="cls-3" d="M74.39,53.63a5.52,5.52,0,0,1,0,.71,5,5,0,0,1-4.14,4.24,4.57,4.57,0,0,1-.83.07H53.53V78.47l-27.83.36V71.61A17.89,17.89,0,0,1,37.08,55a16.68,16.68,0,0,1,1.85-.61,17.8,17.8,0,0,1,4.65-.61h0a18.18,18.18,0,0,1,3.79.4V48.61h22a5,5,0,0,1,5,5Z"/><path class="cls-4" d="M70.32,58a1.68,1.68,0,0,1-.12.63,4.57,4.57,0,0,1-.83.07H56.58a1.82,1.82,0,0,1-.14-.7,1.74,1.74,0,0,1,1.74-1.74h10.4A1.74,1.74,0,0,1,70.32,58Z"/><path class="cls-2" d="M74.39,53.63a5.52,5.52,0,0,1,0,.71H38.93a17.8,17.8,0,0,1,4.65-.61h0a18.18,18.18,0,0,1,3.79.4V48.61h22a5,5,0,0,1,5,5Z"/><path class="cls-5" d="M50.05,49.58l-2.24,2.58-4.23,4.89-4.26-4.89-2.24-2.57a18,18,0,0,1,6.5-1.21h0A17.83,17.83,0,0,1,50.05,49.58Z"/><path class="cls-6" d="M47.81,52.16l-4.23,4.89-4.26-4.89a18.07,18.07,0,0,1,4.26-.51h0A17.82,17.82,0,0,1,47.81,52.16Z"/><path class="cls-6" d="M55.21,36.81c0,.24,0,.48,0,.71A11.85,11.85,0,0,1,55,38.87,11.63,11.63,0,0,1,32.9,41.4a10.82,10.82,0,0,1-.76-2.54A9.67,9.67,0,0,1,32,37.53q0-.36,0-.72a11.63,11.63,0,0,1,23.26,0Z"/><path class="cls-5" d="M55,38.87a11.56,11.56,0,0,1-.88,2.8c-9.72,0-14-4.27-14-4.27a17.61,17.61,0,0,1-7.28,4,11.33,11.33,0,0,1-.77-2.54,11.64,11.64,0,0,1,22.9,0Z"/><path class="cls-7" d="M55.21,36.81c0,.24,0,.48,0,.71-10.46.38-15-4.25-15-4.25A14.32,14.32,0,0,1,38.08,35,20.59,20.59,0,0,1,32,37.53q0-.36,0-.72a11.63,11.63,0,1,1,23.26,0Z"/><path class="cls-8" d="M55.21,36.81c0,.24,0,.48,0,.71-10.46.38-15-4.25-15-4.25A14.32,14.32,0,0,1,38.08,35a11.62,11.62,0,0,1,15.35-4.33A11.55,11.55,0,0,1,55.21,36.81Z"/><path class="cls-9" d="M76.57,57v.65h-3v-.53A4.35,4.35,0,0,0,72.33,54,4.33,4.33,0,0,0,65,57.07v.53H62V57a7.3,7.3,0,1,1,14.59,0Z"/><path class="cls-10" d="M76.59,57c0,.22,0,.43,0,.65H75.1a10.52,10.52,0,0,0,0-2.1c-.3-2-2.17-3.36-4-3.92-2.91-.89-7.62.64-7.62,4.3V57.6H62V57a7.29,7.29,0,0,1,13.4-4A7.47,7.47,0,0,1,76.59,57Z"/><path class="cls-11" d="M86.49,59.93V86.8H51.63V59.93a3,3,0,0,1,2.95-3h29A3,3,0,0,1,86.49,59.93Z"/><path class="cls-7" d="M86.49,71.9V62.27H68.67A11.89,11.89,0,0,0,57,71.9Z"/><path class="cls-7" d="M56.77,86.8H86.49v-10H66.77A10,10,0,0,0,56.77,86.8Z"/><rect class="cls-9" x="66.65" y="67.1" width="5.1" height="9.95"/><path class="cls-10" d="M71.75,69.68v7.37h-3.1V72.21a2.53,2.53,0,0,1,2.53-2.53Z"/><circle class="cls-12" cx="69.1" cy="74.6" r="1.13"/><rect x="42.66" y="68.1" width="1.82" height="2.86"/><polygon points="82.59 79.44 82.59 82.64 77.2 82.64 77.2 84.45 84.4 84.45 84.4 79.44 82.59 79.44"/><rect x="72.6" y="82.64" width="2.6" height="1.82"/><path d="M84.51,56.16h-7a8.34,8.34,0,0,0-2.16-4.76,6.27,6.27,0,0,0-5.83-4H50a12.34,12.34,0,0,0-6.45-22.86h0a12.34,12.34,0,0,0-5.12,23.56A19,19,0,0,0,24.6,66.38h0V79.51H50.85v8.06H87.52V59.17A3,3,0,0,0,84.51,56.16Zm-31.85,16a4.72,4.72,0,0,0,2.93,1H65.71v5h7v-5H82.78a4.72,4.72,0,0,0,2.93-1V85.76h-33Zm23-16H73.62a4.53,4.53,0,0,0-8.87,0H62.67a6.56,6.56,0,0,1,6.49-5.64h0A6.57,6.57,0,0,1,75.7,56.16Zm-4.86,12v8.1H67.53v-8.1ZM54.09,36.88V37c-7-.18-11.17-2.53-12.79-3.68a9.87,9.87,0,0,0,1.16-1.69l-1.64-.8S38.89,34.61,33,36.68a10.53,10.53,0,0,1,21.05.2ZM33.17,38.56A18.56,18.56,0,0,0,40,34.66c1.69,1.26,6.16,3.94,13.88,4.16a10.53,10.53,0,0,1-20.74-.26ZM43.56,55.8,38.5,50a16.94,16.94,0,0,1,5.06-.77H49.3Zm-6.88-5.13,6,6.85v8.15h1.81V57.52l7.24-8.3H66.25a8.42,8.42,0,0,0-5.41,6.94h-7a3,3,0,0,0-3,3v18.5H34.42V67H32.6V77.67H26.41V66.39h0A17.17,17.17,0,0,1,36.68,50.67Zm35.06,5.49H66.63a2.71,2.71,0,0,1,5.11,0Zm14,10.71v1.52a2.93,2.93,0,0,1-2.93,2.93H72.66v-5h-7v5H55.59a2.93,2.93,0,0,1-2.93-2.93V59.17A1.19,1.19,0,0,1,53.86,58H84.51a1.19,1.19,0,0,1,1.2,1.19v7.7Z"/><polygon points="72.43 59.28 72.43 60.19 72.43 61.09 74.86 61.09 74.86 60.19 74.86 59.28 72.43 59.28"/><polygon points="84.4 59.28 76.95 59.28 76.95 61.09 82.59 61.09 82.59 66.87 84.4 66.87 84.4 59.28"/><rect x="60.77" y="36.89" width="1.82" height="2"/><rect x="67.7" y="28.28" width="1.82" height="2"/><rect x="81.41" y="27.29" width="1.82" height="2"/><rect x="78.15" y="41.59" width="1.82" height="2"/></g></g></svg>