<svg xmlns="http://www.w3.org/2000/svg" viewBox="0 0 15.97 26.81"><defs><style>.cls-1{fill:#58585a;}</style></defs><title>face</title><g id="Capa_2" data-name="Capa 2"><g id="Capa_1-2" data-name="Capa 1"><path class="cls-1" d="M15.39.84A20,20,0,0,0,10.09,0c-3.78,0-5.9,1.72-6,4.85v5.46H.84a.84.84,0,0,0-.6.25.83.83,0,0,0-.24.6l.07,5A.83.83,0,0,0,.91,17H4.14v9a.83.83,0,0,0,.83.83H9.86A.83.83,0,0,0,10.7,26V17h2.48a.84.84,0,0,0,.81-.63l1.27-5a.83.83,0,0,0-.81-1H10.7V7c.09-.1.44-.32,1.34-.32a12,12,0,0,1,2.89.45A.85.85,0,0,0,15.65,7,.83.83,0,0,0,16,6.35V1.64a.84.84,0,0,0-.58-.8ZM14.3,5.3A11.11,11.11,0,0,0,12,5C9.17,5,9,6.78,9,6.9v4.25a.85.85,0,0,0,.84.84h3.51l-.84,3.3H9.86a.83.83,0,0,0-.83.84v9H5.81v-9A.83.83,0,0,0,5,15.29H1.74L1.69,12H5a.84.84,0,0,0,.84-.84V4.86c0-1.37.49-3.18,4.28-3.18a18,18,0,0,1,4.21.59Z"/></g></g></svg>