<svg xmlns="http://www.w3.org/2000/svg" viewBox="0 0 337.66 337.66"><defs><style>.cls-1{fill:#e5e5e5;}.cls-2{fill:#65cecc;}.cls-3{fill:#816892;}.cls-4{fill:#e9cd4b;}.cls-5{fill:#f0b77d;}.cls-6{fill:#00ba54;}.cls-7{fill:#de2f55;}</style></defs><title>informes</title><g id="Capa_2" data-name="Capa 2"><g id="Capa_1-2" data-name="Capa 1"><circle class="cls-1" cx="168.83" cy="168.83" r="168.83"/><path class="cls-2" d="M190.52,93.83v12h-48v-12h-42v162h132v-162Z"/><path class="cls-3" d="M142.52,81.83h48v24h-48Z"/><path class="cls-4" d="M112.52,168.83h18v39h-18Z"/><path class="cls-5" d="M142.52,156.83h18v51h-18Z"/><path class="cls-6" d="M172.52,144.83h18v63h-18Z"/><path class="cls-7" d="M202.52,132.83h18v75h-18Z"/><path d="M232.52,90.83h-39v-9a3,3,0,0,0-3-3h-48a3,3,0,0,0-3,3h0v9h-39a3,3,0,0,0-3,3h0v162a3,3,0,0,0,3,3h132a3,3,0,0,0,3-3h0v-162a3,3,0,0,0-3-3Zm-87-6h42v18h-42Zm84,168h-126v-156h36v9a3,3,0,0,0,3,3h48a3,3,0,0,0,3-3h0v-9h36Z"/><path d="M109.52,216.83h66v6h-66Z"/><path d="M181.52,216.83h42v6h-42Z"/><path d="M109.52,228.83h114v6h-114Z"/><path d="M109.52,240.83h48v6h-48Z"/><path d="M163.52,240.83h60v6h-60Z"/><path d="M130.52,210.83h-18a3,3,0,0,1-3-3h0v-39a3,3,0,0,1,3-3h18a3,3,0,0,1,3,3h0v39a3,3,0,0,1-3,3Zm-15-6h12v-33h-12Z"/><path d="M160.52,210.83h-18a3,3,0,0,1-3-3h0v-51a3,3,0,0,1,3-3h18a3,3,0,0,1,3,3h0v51a3,3,0,0,1-3,3Zm-15-6h12v-45h-12Z"/><path d="M190.52,210.83h-18a3,3,0,0,1-3-3h0v-63a3,3,0,0,1,3-3h18a3,3,0,0,1,3,3h0v63a3,3,0,0,1-3,3Zm-15-6h12v-57h-12Z"/><path d="M220.52,210.83h-18a3,3,0,0,1-3-3h0v-75a3,3,0,0,1,3-3h18a3,3,0,0,1,3,3h0v75a3,3,0,0,1-3,3Zm-15-6h12v-69h-12Z"/><path d="M114.11,153.37l-3.18-5.08,24-15a3,3,0,0,1,1.59-.46h26.09l26.25-17.49a3,3,0,0,1,1.07-.45l30-6,1.18,5.88-29.42,5.89-26.5,17.67a3,3,0,0,1-1.67.5H137.38Z"/></g></g></svg>