<svg xmlns="http://www.w3.org/2000/svg" viewBox="0 0 41.17 41.17"><defs><style>.cls-1{fill:#f1f1f1;}.cls-2{fill:#58585a;}</style></defs><title>insta-d_1</title><g id="Capa_2" data-name="Capa 2"><g id="Capa_1-2" data-name="Capa 1"><rect class="cls-1" x="5.17" y="5.1" width="31.25" height="31.25" rx="15.62" ry="15.62"/><path class="cls-2" d="M26.72,11H14.45a3.55,3.55,0,0,0-3.55,3.55V26.78a3.55,3.55,0,0,0,3.55,3.55H26.72a3.56,3.56,0,0,0,3.56-3.55V14.51A3.56,3.56,0,0,0,26.72,11ZM20.59,27A6.38,6.38,0,1,1,27,20.64,6.38,6.38,0,0,1,20.59,27Zm6.58-11.44a1.51,1.51,0,1,1,1.51-1.51,1.51,1.51,0,0,1-1.51,1.51Z"/><path class="cls-2" d="M20.59,17a3.69,3.69,0,1,0,3.68,3.68A3.69,3.69,0,0,0,20.59,17Z"/><path class="cls-2" d="M20.59,0A20.59,20.59,0,1,0,41.17,20.59,20.59,20.59,0,0,0,20.59,0ZM33,26.78A6.25,6.25,0,0,1,26.72,33H14.45A6.26,6.26,0,0,1,8.2,26.78V14.51a6.26,6.26,0,0,1,6.25-6.25H26.72A6.25,6.25,0,0,1,33,14.51Z"/></g></g></svg>