<svg xmlns="http://www.w3.org/2000/svg" viewBox="0 0 23.82 23.81"><defs><style>.cls-1{fill:#6a453b;}</style></defs><title>instagram</title><g id="Capa_2" data-name="Capa 2"><g id="Capa_1-2" data-name="Capa 1"><path class="cls-1" d="M15.46,6.34H8.36A2.06,2.06,0,0,0,6.3,8.39v7.1a2.06,2.06,0,0,0,2.06,2h7.1a2.05,2.05,0,0,0,2.05-2V8.39a2.05,2.05,0,0,0-2.05-2.05Zm-3.55,9.29a3.69,3.69,0,1,1,3.69-3.69,3.69,3.69,0,0,1-3.69,3.69ZM15.72,9a.87.87,0,1,1,.87-.87.87.87,0,0,1-.87.87Z"/><path class="cls-1" d="M11.91,9.81A2.13,2.13,0,1,0,14,11.94a2.13,2.13,0,0,0-2.13-2.13Z"/><path class="cls-1" d="M11.91,0A11.91,11.91,0,1,0,23.82,11.91,11.91,11.91,0,0,0,11.91,0Zm7.16,15.49a3.61,3.61,0,0,1-3.61,3.61H8.36a3.62,3.62,0,0,1-3.62-3.61V8.39A3.62,3.62,0,0,1,8.36,4.78h7.1a3.61,3.61,0,0,1,3.61,3.61Z"/></g></g></svg>