<svg xmlns="http://www.w3.org/2000/svg" viewBox="0 0 184.85 58.96"><defs><style>.cls-1{fill:#58585a;}</style></defs><title>logo-n</title><g id="Capa_2" data-name="Capa 2"><g id="Capa_1-2" data-name="Capa 1"><path class="cls-1" d="M47.28,20.29a.8.8,0,0,1-.7-.42l-.1-.19h0A20.6,20.6,0,0,0,39.3,12.5h0l-.21-.11a.79.79,0,0,1-.36-1l.12-.28h0l.61-1.44,2.5-6a.8.8,0,0,1,1-.43l.08,0a5.26,5.26,0,0,1,.84.44l.51.31a29.18,29.18,0,0,1,5.9,4.6,29.49,29.49,0,0,1,4.61,5.91c.15.24.24.4.31.52a4.79,4.79,0,0,1,.45.85l0,.06a.8.8,0,0,1-.43,1l-6,2.5-1.48.62-.24.1A.81.81,0,0,1,47.28,20.29Z"/><path class="cls-1" d="M16.27,55.77a.8.8,0,0,1-.3-.06l-.08,0a5.26,5.26,0,0,1-.84-.44l-.51-.31A30.5,30.5,0,0,1,4,44.42l-.31-.51a5.45,5.45,0,0,1-.45-.86l0-.06a.8.8,0,0,1,.43-1l6-2.5,1.49-.62.23-.1a.85.85,0,0,1,.31-.06.8.8,0,0,1,.7.42l.1.19h0a19.57,19.57,0,0,0,3.14,4,19.86,19.86,0,0,0,4,3.14h0l.21.11a.79.79,0,0,1,.36,1l-.11.27h0l-.61,1.44-2.5,6A.8.8,0,0,1,16.27,55.77Z"/><path class="cls-1" d="M56.85,39a.73.73,0,0,1-.3-.06l-6-2.46-1.46-.6-.27-.11a.78.78,0,0,1-.45-1l.06-.2v0a20.48,20.48,0,0,0,0-10.16h0l-.06-.21a.78.78,0,0,1,.45-1l.28-.12h0l1.45-.59,6-2.46a.73.73,0,0,1,.3-.06.8.8,0,0,1,.73.49l0,.09a5.64,5.64,0,0,1,.28.89c0,.13.07.31.14.59a30.46,30.46,0,0,1,0,14.86c-.07.28-.11.46-.14.59a5.6,5.6,0,0,1-.29.91l0,.07a.8.8,0,0,1-.73.49Z"/><path class="cls-1" d="M2.12,39a.81.81,0,0,1-.74-.49l0-.09a5.64,5.64,0,0,1-.28-.89c0-.13-.07-.31-.14-.59a30.46,30.46,0,0,1,0-14.86c.07-.28.11-.46.14-.59a5.6,5.6,0,0,1,.29-.91l0-.07A.81.81,0,0,1,2.12,20a.8.8,0,0,1,.3.06l6,2.46,1.46.6.27.11a.78.78,0,0,1,.45,1l-.06.2v0a20.48,20.48,0,0,0,0,10.16h0l.05.21a.78.78,0,0,1-.45,1l-.27.12h0l-1.45.59-6,2.46A.8.8,0,0,1,2.12,39Z"/><path class="cls-1" d="M42.69,55.77a.8.8,0,0,1-.74-.49l-2.5-6-.61-1.45-.11-.27a.8.8,0,0,1,.36-1l.2-.11h0a20.6,20.6,0,0,0,7.16-7.17h0l.11-.2a.8.8,0,0,1,.7-.42.81.81,0,0,1,.31.06l.26.11h0l1.45.61,6,2.5a.8.8,0,0,1,.43,1l0,.08a5.26,5.26,0,0,1-.44.84l-.31.51A30.5,30.5,0,0,1,44.42,54.93l-.51.31a5.45,5.45,0,0,1-.86.45l-.06,0a.8.8,0,0,1-.3.06Z"/><path class="cls-1" d="M11.68,20.29a.77.77,0,0,1-.3-.06l-.27-.11h0l-1.45-.61-6-2.5a.8.8,0,0,1-.43-1l0-.08a4.63,4.63,0,0,1,.44-.83c.07-.12.16-.28.31-.52A30.5,30.5,0,0,1,14.54,4l.52-.31a4.79,4.79,0,0,1,.85-.45l.06,0a.8.8,0,0,1,1,.43l2.5,6,.61,1.45.11.28a.78.78,0,0,1-.36,1l-.2.11h0a20.2,20.2,0,0,0-4,3.14,19.87,19.87,0,0,0-3.13,4h0l-.11.2A.8.8,0,0,1,11.68,20.29Z"/><path class="cls-1" d="M35,10.63a.59.59,0,0,1-.23,0l-.22-.06h0a19.74,19.74,0,0,0-4.93-.64h-.28a19.6,19.6,0,0,0-4.92.64h0l-.23.06a.59.59,0,0,1-.23,0,.78.78,0,0,1-.73-.49l-.11-.27h0l-.59-1.45-2.46-6a.81.81,0,0,1,.43-1l.09,0a5,5,0,0,1,.89-.29l.59-.14A29.33,29.33,0,0,1,29.35,0h.26a29.33,29.33,0,0,1,7.3.92l.59.14a5.93,5.93,0,0,1,.92.29l.06,0a.81.81,0,0,1,.43,1l-2.46,6-.6,1.46-.11.27a.78.78,0,0,1-.73.49Z"/><path class="cls-1" d="M29.35,59a29.39,29.39,0,0,1-7.3-.92l-.59-.14a5.93,5.93,0,0,1-.92-.29l-.06,0a.8.8,0,0,1-.43-1l2.46-6,.6-1.46.11-.27a.78.78,0,0,1,.73-.49.59.59,0,0,1,.23,0l.22.06h0a20.06,20.06,0,0,0,4.92.63h.28a20.2,20.2,0,0,0,4.93-.63h0l.22-.06a.59.59,0,0,1,.23,0,.78.78,0,0,1,.73.49l.12.28h0l.59,1.45,2.46,6a.8.8,0,0,1-.43,1l-.08,0a5.29,5.29,0,0,1-.9.29l-.59.14a29.33,29.33,0,0,1-7.3.92Z"/><rect class="cls-1" x="66.65" y="12.48" width="4.05" height="18.42"/><path class="cls-1" d="M73.33,12.48h7.53c4.39,0,7,2.61,7,6.37v0c0,4.26-3.31,6.47-7.44,6.47H77.38V30.9h-4Zm7.26,9.29c2,0,3.21-1.21,3.21-2.79v-.05c0-1.82-1.26-2.79-3.29-2.79H77.38v5.63Z"/><path class="cls-1" d="M88.93,12.48h8.42a7.35,7.35,0,0,1,5.37,1.87,5.8,5.8,0,0,1,1.57,4.21v.05a5.72,5.72,0,0,1-3.94,5.71l4.5,6.58h-4.74l-4-5.89H93V30.9h-4Zm8.16,9c2,0,3.1-1.06,3.1-2.61v-.05c0-1.74-1.21-2.63-3.18-2.63H93v5.29Z"/><path class="cls-1" d="M105.16,21.74v0A9.52,9.52,0,0,1,115,12.17a9.42,9.42,0,0,1,9.75,9.47v.05a9.79,9.79,0,0,1-19.57,0m15.34,0v0a5.6,5.6,0,0,0-5.58-5.78,5.51,5.51,0,0,0-5.53,5.73v.05A5.6,5.6,0,0,0,115,27.48a5.51,5.51,0,0,0,5.52-5.74"/><path class="cls-1" d="M126.36,12.48h7.18c5.79,0,9.79,4,9.79,9.16v.05c0,5.18-4,9.21-9.79,9.21h-7.18Zm7.18,14.76a5.24,5.24,0,0,0,5.55-5.5v0a5.29,5.29,0,0,0-5.55-5.55h-3.13v11.1Z"/><rect class="cls-1" x="145.14" y="12.48" width="4.05" height="18.42"/><path class="cls-1" d="M151,21.74v0a9.36,9.36,0,0,1,9.6-9.52A9.48,9.48,0,0,1,167.87,15l-2.58,3a6.76,6.76,0,0,0-4.7-2.07,5.45,5.45,0,0,0-5.34,5.73v.05c0,3.16,2.18,5.79,5.34,5.79a6.6,6.6,0,0,0,4.83-2.16L168,27.93a9.41,9.41,0,0,1-7.55,3.28A9.3,9.3,0,0,1,151,21.74"/><polygon class="cls-1" points="169.27 12.48 173.32 12.48 173.32 19.77 180.79 19.77 180.79 12.48 184.84 12.48 184.84 30.9 180.79 30.9 180.79 23.51 173.32 23.51 173.32 30.9 169.27 30.9 169.27 12.48"/><path class="cls-1" d="M66.65,37.24h3c1.79,0,3,.95,3,2.52v0c0,1.72-1.43,2.6-3.12,2.6H67.55v2.81h-.9Zm2.86,4.33c1.32,0,2.18-.71,2.18-1.75v0c0-1.14-.85-1.73-2.13-1.73h-2v3.5Z"/><path class="cls-1" d="M73.67,42.28v0a3.07,3.07,0,0,1,6.13,0v0a3.05,3.05,0,0,1-3.08,3.07A3,3,0,0,1,73.67,42.28Zm5.23,0v0A2.23,2.23,0,0,0,76.72,40a2.17,2.17,0,0,0-2.15,2.28v0a2.2,2.2,0,0,0,2.17,2.28A2.17,2.17,0,0,0,78.9,42.28Z"/><path class="cls-1" d="M81.38,39.31h.87v1.54a2.53,2.53,0,0,1,2.4-1.64v.95h-.07c-1.28,0-2.33.92-2.33,2.69v2.34h-.87Z"/><path class="cls-1" d="M89.3,43V39.31h.87v3.44a1.56,1.56,0,0,0,1.63,1.77,1.73,1.73,0,0,0,1.76-1.84V39.31h.86v5.88h-.86v-1a2.25,2.25,0,0,1-2,1.15A2.15,2.15,0,0,1,89.3,43Z"/><path class="cls-1" d="M96.39,39.31h.87v1a2.22,2.22,0,0,1,2-1.15,2.14,2.14,0,0,1,2.25,2.35v3.65h-.87V41.76A1.56,1.56,0,0,0,99,40a1.73,1.73,0,0,0-1.76,1.84v3.36h-.87Z"/><path class="cls-1" d="M102.94,43.49v0c0-1.26,1-1.92,2.52-1.92a6.37,6.37,0,0,1,1.79.25v-.18c0-1-.64-1.59-1.74-1.59a4.06,4.06,0,0,0-1.78.42l-.27-.71a4.79,4.79,0,0,1,2.14-.5,2.61,2.61,0,0,1,1.9.64,2.33,2.33,0,0,1,.62,1.73v3.59h-.87v-.87a2.58,2.58,0,0,1-2.11,1A2,2,0,0,1,102.94,43.49Zm4.32-.46v-.54a5.84,5.84,0,0,0-1.71-.25c-1.09,0-1.72.47-1.72,1.18v0c0,.74.68,1.17,1.48,1.17A1.75,1.75,0,0,0,107.26,43Z"/><path class="cls-1" d="M113.4,37.07h1v1h-1Zm0,2.24h.88v5.88h-.88Z"/><path class="cls-1" d="M116.36,39.31h.88v1a2.22,2.22,0,0,1,2-1.15,2.15,2.15,0,0,1,2.25,2.35v3.65h-.87V41.76A1.57,1.57,0,0,0,119,40a1.73,1.73,0,0,0-1.76,1.84v3.36h-.88Z"/><path class="cls-1" d="M123,42.28v0a3.05,3.05,0,0,1,5.36-2l-.58.61A2.34,2.34,0,0,0,126,40a2.18,2.18,0,0,0-2.1,2.28v0a2.19,2.19,0,0,0,2.16,2.28,2.4,2.4,0,0,0,1.79-.87l.56.52A3,3,0,0,1,123,42.28Z"/><path class="cls-1" d="M129.93,36.9h.88v8.29h-.88Z"/><path class="cls-1" d="M132.75,43V39.31h.88v3.44a1.56,1.56,0,0,0,1.62,1.77A1.73,1.73,0,0,0,137,42.68V39.31h.86v5.88H137v-1a2.25,2.25,0,0,1-2,1.15A2.15,2.15,0,0,1,132.75,43Z"/><path class="cls-1" d="M139.35,44.44l.44-.62a3.5,3.5,0,0,0,2,.74c.7,0,1.21-.36,1.21-.93v0c0-.59-.69-.82-1.46-1-.92-.27-2-.58-2-1.66v0a1.79,1.79,0,0,1,2-1.68,4,4,0,0,1,2.11.65l-.4.66a3.33,3.33,0,0,0-1.74-.57c-.69,0-1.13.37-1.13.86v0c0,.55.72.77,1.51,1s1.88.62,1.88,1.68v0c0,1.12-.92,1.76-2.09,1.76A4,4,0,0,1,139.35,44.44Z"/><path class="cls-1" d="M145.52,37.07h1v1h-1Zm.06,2.24h.87v5.88h-.87Z"/><path class="cls-1" d="M148.12,42.28v0a3.07,3.07,0,0,1,6.13,0v0a3.05,3.05,0,0,1-3.08,3.07A3,3,0,0,1,148.12,42.28Zm5.23,0v0a2.23,2.23,0,0,0-2.18-2.3A2.18,2.18,0,0,0,149,42.24v0a2.2,2.2,0,0,0,2.17,2.28A2.17,2.17,0,0,0,153.35,42.28Zm-1.45-5.5.91.42-1.3,1.23h-.68Z"/><path class="cls-1" d="M155.83,39.31h.87v1a2.23,2.23,0,0,1,2-1.15A2.15,2.15,0,0,1,161,41.54v3.65h-.87V41.76A1.56,1.56,0,0,0,158.46,40a1.73,1.73,0,0,0-1.76,1.84v3.36h-.87Z"/><path class="cls-1" d="M166.24,39.31h.87v1.54a2.53,2.53,0,0,1,2.4-1.64v.95h-.07c-1.28,0-2.33.92-2.33,2.69v2.34h-.87Z"/><path class="cls-1" d="M173.18,44.56a2.42,2.42,0,0,0,1.85-.82l.55.49a3.06,3.06,0,0,1-2.42,1.1,3.08,3.08,0,0,1-.11-6.14c1.73,0,2.73,1.39,2.73,3.12,0,.07,0,.17,0,.3h-4.66A2.06,2.06,0,0,0,173.18,44.56Zm1.72-2.65a1.94,1.94,0,0,0-1.88-2,2,2,0,0,0-1.91,2Z"/><path class="cls-1" d="M176.87,43.49v0c0-1.26,1-1.92,2.51-1.92a6.39,6.39,0,0,1,1.8.25v-.18c0-1-.64-1.59-1.74-1.59a4.06,4.06,0,0,0-1.78.42l-.26-.71a4.71,4.71,0,0,1,2.13-.5,2.61,2.61,0,0,1,1.9.64A2.33,2.33,0,0,1,182,41.6v3.59h-.86v-.87a2.58,2.58,0,0,1-2.11,1A2,2,0,0,1,176.87,43.49Zm4.32-.46v-.54a5.84,5.84,0,0,0-1.71-.25c-1.1,0-1.72.47-1.72,1.18v0c0,.74.68,1.17,1.48,1.17A1.75,1.75,0,0,0,181.19,43Z"/><path class="cls-1" d="M184,36.9h.88v8.29H184Z"/></g></g></svg>