<svg xmlns="http://www.w3.org/2000/svg" viewBox="0 0 482.01 165.2"><defs><style>.cls-1{fill:#fff;}.cls-2{fill:#1a79bf;}.cls-3{fill:#3dab49;}</style></defs><title>logo-chaco</title><g id="Capa_2" data-name="Capa 2"><g id="Layer_1" data-name="Layer 1"><path class="cls-1" d="M77.35,105.59l-1.58,1.69a14.22,14.22,0,0,0-10.4-3.94c-8.32,0-14.23,6.59-14.23,15.25s6,15.06,14.18,15.06a15,15,0,0,0,10.78-4v-8.42H68V119H78.51v11.45c-3.66,4.05-8.13,5.54-13.19,5.54-9.57,0-16.79-7.37-16.79-17.37S55.75,101,65.37,101A17,17,0,0,1,77.35,105.59Z"/><path class="cls-1" d="M96.29,109.73c7.36,0,12.8,5.69,12.8,13.09S103.55,136,96.24,136s-12.8-5.54-12.8-13.14S88.93,109.73,96.29,109.73Zm-.05,24c6.07,0,10.34-4.62,10.34-10.88,0-6.1-4.23-10.82-10.34-10.82s-10.3,4.72-10.3,10.82C85.94,129.08,90.18,133.7,96.24,133.7Z"/><path class="cls-1" d="M114.46,100.54h2.41v14.58a10.86,10.86,0,0,1,9.52-5.39c7,0,11.93,5.48,11.93,13.19s-5,13-12.17,13a10.56,10.56,0,0,1-9.28-5.25v4.62h-2.41Zm11.79,33.16c5.34,0,9.57-4.25,9.57-10.78s-4-10.92-9.48-10.92c-5.2,0-9.58,4-9.58,10.92C116.76,128.79,120.43,133.7,126.25,133.7Z"/><path class="cls-1" d="M144.89,101.74a2,2,0,1,1-2,2A2,2,0,0,1,144.89,101.74Zm-1.2,8.62h2.41v25h-2.41Z"/><path class="cls-1" d="M163.55,109.73c7.17,0,11.75,5.34,11.75,12.51v1H154c0,6.65,4.24,10.49,10.19,10.49a10,10,0,0,0,8.62-4.29l1.58,1.12a11.43,11.43,0,0,1-10.2,5.39c-7.35,0-12.69-5.25-12.69-13C151.53,114.75,157.2,109.73,163.55,109.73Zm9.24,11.4c-.29-6.24-4.57-9.18-9.28-9.18-4.53,0-8.86,3.08-9.34,9.18Z"/><path class="cls-1" d="M190.73,112.09c-5.92,0-7.7,4.86-7.7,10.06v13.18h-2.4v-25H183v4.47a8,8,0,0,1,7.7-5.1Z"/><path class="cls-1" d="M214.91,119.11v16.22h-2.4v-16c0-4.56-2.89-7.36-6.78-7.36-4.38,0-7.52,3.26-7.52,8.13v15.25h-2.39v-25h2.39v3.94a8.87,8.87,0,0,1,7.81-4.57C211.15,109.73,214.91,113.3,214.91,119.11Z"/><path class="cls-1" d="M232.94,109.73c7.36,0,12.8,5.69,12.8,13.09S240.2,136,232.89,136s-12.79-5.54-12.79-13.14S225.58,109.73,232.94,109.73Zm-.05,24c6.06,0,10.34-4.62,10.34-10.88,0-6.1-4.24-10.82-10.34-10.82s-10.29,4.72-10.29,10.82C222.6,129.08,226.82,133.7,232.89,133.7Z"/><path class="cls-1" d="M285.79,135.33h-2.41v-4.62a10.56,10.56,0,0,1-9.29,5.25c-7.11,0-12.16-5.44-12.16-13s4.9-13.19,11.92-13.19a10.88,10.88,0,0,1,9.53,5.39V100.54h2.41ZM273.91,112c-5.44,0-9.48,4.52-9.48,10.92s4.23,10.78,9.57,10.78c5.83,0,9.48-4.91,9.48-10.78C283.48,116,279.11,112,273.91,112Z"/><path class="cls-1" d="M303.23,109.73c7.18,0,11.74,5.34,11.74,12.51v1H293.72c0,6.65,4.22,10.49,10.18,10.49a10,10,0,0,0,8.62-4.29l1.59,1.12A11.46,11.46,0,0,1,303.9,136c-7.36,0-12.7-5.25-12.7-13C291.2,114.75,296.88,109.73,303.23,109.73Zm9.24,11.4c-.29-6.24-4.57-9.18-9.28-9.18-4.53,0-8.85,3.08-9.33,9.18Z"/><path class="cls-1" d="M320.3,100.54h2.4v34.79h-2.4Z"/><path class="cls-1" d="M343,101.65h8.47a9.38,9.38,0,1,1,0,18.76h-6v14.92H343Zm8.43,16.55a7.15,7.15,0,0,0,0-14.29h-6V118.2Z"/><path class="cls-1" d="M365.93,126.58V110.36h2.41v16c0,4.58,2.88,7.36,6.77,7.36,4.39,0,7.51-3.26,7.51-8.13V110.36H385v25h-2.41v-4a8.81,8.81,0,0,1-7.78,4.58C369.67,136,365.93,132.4,365.93,126.58Z"/><path class="cls-1" d="M402.24,109.73c7.16,0,11.74,5.34,11.74,12.51v1H392.71c0,6.65,4.24,10.49,10.2,10.49a10,10,0,0,0,8.61-4.29l1.58,1.12A11.42,11.42,0,0,1,402.91,136c-7.36,0-12.7-5.25-12.7-13C390.21,114.75,395.88,109.73,402.24,109.73Zm9.23,11.4c-.27-6.24-4.57-9.18-9.28-9.18-4.52,0-8.85,3.08-9.33,9.18Z"/><path class="cls-1" d="M419.3,100.54h2.41v14.58a10.86,10.86,0,0,1,9.53-5.39c7,0,11.92,5.48,11.92,13.19s-5,13-12.18,13a10.54,10.54,0,0,1-9.27-5.25v4.62H419.3Zm11.79,33.16c5.34,0,9.58-4.25,9.58-10.78S436.62,112,431.19,112c-5.2,0-9.59,4-9.59,10.92C421.6,128.79,425.26,133.7,431.09,133.7Z"/><path class="cls-1" d="M448.53,100.54h2.41v34.79h-2.41Z"/><path class="cls-1" d="M469.22,109.73c7.37,0,12.79,5.69,12.79,13.09S476.48,136,469.17,136s-12.8-5.54-12.8-13.14S461.86,109.73,469.22,109.73Zm-.05,24c6.07,0,10.35-4.62,10.35-10.88,0-6.1-4.24-10.82-10.35-10.82s-10.3,4.72-10.3,10.82C458.87,129.08,463.1,133.7,469.17,133.7Z"/><path class="cls-1" d="M46.07,54.46c0-15,11.22-26.44,26.59-26.44a25.5,25.5,0,0,1,15.15,4.65l-2.91,9a22.4,22.4,0,0,0-12.24-4.07c-9.25,0-15.88,7.21-15.88,16.82,0,9.76,6.63,16.83,15.88,16.83a23.08,23.08,0,0,0,12.67-4.15l2.91,9A25.62,25.62,0,0,1,72.66,80.9C56.71,80.9,46.07,69.46,46.07,54.46Z"/><path class="cls-1" d="M93,29h10.27V49.65h21.2V29h10.28V80H124.51V58.9h-21.2V80H93Z"/><path class="cls-1" d="M152.84,66.85,148.4,80H138.05l18.07-51h10.77L185,80H174.62l-4.45-13.1ZM161.5,40l-5.9,18.35h11.87Z"/><path class="cls-1" d="M184.07,54.46c0-15,11.22-26.44,26.59-26.44a25.56,25.56,0,0,1,15.16,4.65l-2.92,9a22.34,22.34,0,0,0-12.24-4.07c-9.25,0-15.88,7.21-15.88,16.82,0,9.76,6.63,16.83,15.88,16.83a23.15,23.15,0,0,0,12.68-4.15l2.91,9a25.65,25.65,0,0,1-15.59,4.81C194.71,80.9,184.07,69.46,184.07,54.46Z"/><path class="cls-1" d="M228.35,54.46C228.35,39.6,239.21,28,254.88,28s26.5,11.58,26.5,26.44S270.53,80.9,254.88,80.9,228.35,69.46,228.35,54.46Zm10.71,0c0,9.76,6.63,16.83,15.82,16.83s15.8-7.07,15.8-16.83S264,37.64,254.88,37.64,239.06,44.85,239.06,54.46Z"/><polygon class="cls-2" points="18.36 73.42 0 91.79 0 18.35 18.36 0 18.36 73.42"/><polygon class="cls-3" points="18.36 146.85 0 165.2 0 91.77 18.36 73.42 18.36 146.85"/></g></g></svg>