<svg xmlns="http://www.w3.org/2000/svg" viewBox="0 0 180 57.41"><defs><style>.cls-1{fill:#3faeec;}.cls-2{fill:#939598;}.cls-3{fill:#45a5ab;}.cls-4{fill:#e3693e;}.cls-5{fill:#428c44;}.cls-6{fill:#f0a338;}.cls-7{fill:#7c458c;}.cls-8{fill:#baca3f;}.cls-9{fill:#58585a;}</style></defs><title>logo</title><g id="Capa_2" data-name="Capa 2"><g id="Capa_1-2" data-name="Capa 1"><path class="cls-1" d="M46,19.76a.79.79,0,0,1-.68-.41l-.1-.19h0a19.48,19.48,0,0,0-3.06-3.93,19.07,19.07,0,0,0-3.91-3h0l-.2-.11a.78.78,0,0,1-.36-1l.12-.27h0l.59-1.4,2.44-5.82a.77.77,0,0,1,.72-.47.71.71,0,0,1,.29.05l.08,0a5,5,0,0,1,.81.42l.51.3A28.59,28.59,0,0,1,49,8.41a28.37,28.37,0,0,1,4.49,5.75c.14.24.24.39.31.5a5.65,5.65,0,0,1,.43.83l0,.06a.78.78,0,0,1-.42,1L48,19l-1.44.61-.23.09A.8.8,0,0,1,46,19.76Z"/><path class="cls-2" d="M15.85,54.31a.8.8,0,0,1-.3-.06l-.08,0a7.39,7.39,0,0,1-.81-.42l-.5-.31A29.73,29.73,0,0,1,3.92,43.26l-.3-.51a5.65,5.65,0,0,1-.43-.83l0-.06a.78.78,0,0,1,.42-1L9.4,38.41l1.44-.6.24-.1a.72.72,0,0,1,.29-.06.79.79,0,0,1,.69.41l.1.19h0a20.11,20.11,0,0,0,7,7h0l.2.11a.77.77,0,0,1,.35,1l-.11.27h0L19,48l-2.44,5.82A.77.77,0,0,1,15.85,54.31Z"/><path class="cls-3" d="M55.35,37.94a.74.74,0,0,1-.29,0l-5.84-2.4-1.42-.58-.26-.1a.78.78,0,0,1-.44-1l.06-.19h0a20.07,20.07,0,0,0,0-9.9h0l0-.2a.76.76,0,0,1,.44-.94l.27-.11h0l1.41-.58,5.84-2.39a.75.75,0,0,1,.29-.06.78.78,0,0,1,.72.47l0,.09a6.49,6.49,0,0,1,.27.87c0,.13.07.3.14.57a29.85,29.85,0,0,1,0,14.47c-.07.27-.11.45-.14.57a6,6,0,0,1-.28.9l0,.06a.77.77,0,0,1-.72.47Z"/><path class="cls-4" d="M2.06,37.94a.79.79,0,0,1-.72-.47l0-.09A5,5,0,0,1,1,36.51c0-.12-.07-.3-.14-.57a29.85,29.85,0,0,1,0-14.47C1,21.2,1,21,1,20.9A5.27,5.27,0,0,1,1.32,20l0-.07a.8.8,0,0,1,.72-.47.72.72,0,0,1,.29.06l5.84,2.39,1.42.58.26.11a.78.78,0,0,1,.45.94l-.06.19v0a20.07,20.07,0,0,0,0,9.9h0l.06.19a.79.79,0,0,1-.45,1l-.26.1h0l-1.41.57-5.84,2.4A.71.71,0,0,1,2.06,37.94Z"/><path class="cls-5" d="M41.57,54.31a.77.77,0,0,1-.72-.48L38.41,48l-.59-1.41-.11-.26a.77.77,0,0,1,.36-1l.19-.11h0a19.14,19.14,0,0,0,3.92-3.06,18.91,18.91,0,0,0,3.05-3.92h0l.11-.2a.79.79,0,0,1,.68-.41.8.8,0,0,1,.3.06l.26.11h0l1.41.59,5.82,2.44a.78.78,0,0,1,.42,1l0,.08a7.39,7.39,0,0,1-.42.81l-.31.51A29.81,29.81,0,0,1,43.26,53.49l-.51.31a7.66,7.66,0,0,1-.83.43l-.06,0a.72.72,0,0,1-.29.06Z"/><path class="cls-6" d="M11.37,19.76a.72.72,0,0,1-.29-.06l-.26-.11h0L9.4,19,3.58,16.56a.78.78,0,0,1-.42-1l0-.08a5.44,5.44,0,0,1,.42-.81l.3-.5A28.37,28.37,0,0,1,8.41,8.41a28.65,28.65,0,0,1,5.75-4.49l.5-.3a5.65,5.65,0,0,1,.83-.43l.06,0a.79.79,0,0,1,.3-.05.76.76,0,0,1,.71.47L19,9.4l.59,1.41.11.27a.78.78,0,0,1-.35,1l-.2.1v0a18.89,18.89,0,0,0-3.93,3.05,19.45,19.45,0,0,0-3.05,3.92h0l-.1.19A.79.79,0,0,1,11.37,19.76Z"/><path class="cls-7" d="M34.09,10.35l-.23,0-.21-.07h0a19.1,19.1,0,0,0-4.8-.62h-.27a19.16,19.16,0,0,0-4.8.62h0l-.22.07a.85.85,0,0,1-.23,0,.77.77,0,0,1-.71-.48l-.11-.26h0l-.58-1.42L19.53,2.35a.78.78,0,0,1,.42-1l.08,0A5.61,5.61,0,0,1,20.9,1l.57-.14A28.8,28.8,0,0,1,28.58,0h.26a28.72,28.72,0,0,1,7.1.89l.57.14a5.29,5.29,0,0,1,.9.29l.06,0a.78.78,0,0,1,.42,1l-2.4,5.84-.58,1.42-.1.26a.77.77,0,0,1-.72.48Z"/><path class="cls-8" d="M28.58,57.41a28.8,28.8,0,0,1-7.11-.89l-.57-.14a6.38,6.38,0,0,1-.9-.28l-.05,0a.77.77,0,0,1-.42-1l2.39-5.84.58-1.42.11-.26a.77.77,0,0,1,.71-.48.85.85,0,0,1,.23,0l.21.06h0a19.16,19.16,0,0,0,4.8.62h.27a19.1,19.1,0,0,0,4.8-.62h0l.21-.06a1,1,0,0,1,.23,0,.77.77,0,0,1,.72.48l.1.27h0l.57,1.41,2.4,5.84a.78.78,0,0,1-.42,1l-.08,0a5.62,5.62,0,0,1-.88.28l-.57.14a28.74,28.74,0,0,1-7.11.89Z"/><rect class="cls-9" x="64.9" y="12.16" width="3.94" height="17.93"/><path class="cls-9" d="M71.4,12.16h7.33c4.28,0,6.86,2.53,6.86,6.2v.05c0,4.15-3.22,6.3-7.24,6.3h-3v5.38H71.4Zm7.08,9c2,0,3.12-1.18,3.12-2.72v-.05c0-1.77-1.23-2.71-3.2-2.71H75.35V21.2Z"/><path class="cls-9" d="M86.6,12.16h8.19A7.15,7.15,0,0,1,100,14a5.63,5.63,0,0,1,1.54,4.1v.05a5.59,5.59,0,0,1-3.85,5.57l4.39,6.4H97.49l-3.85-5.74h-3.1v5.74H86.6Zm7.94,8.7c1.92,0,3-1,3-2.53v0c0-1.69-1.17-2.56-3.1-2.56H90.54v5.14Z"/><path class="cls-9" d="M102.4,21.17v-.05a9.53,9.53,0,0,1,19.06-.05v.05a9.53,9.53,0,0,1-19.06.05m14.94,0v-.05a5.45,5.45,0,0,0-5.44-5.63,5.37,5.37,0,0,0-5.38,5.58v.05A5.45,5.45,0,0,0,112,26.76a5.37,5.37,0,0,0,5.38-5.59"/><path class="cls-9" d="M123,12.16h7c5.63,0,9.53,3.87,9.53,8.91v.05c0,5.05-3.9,9-9.53,9h-7Zm7,14.37a5.11,5.11,0,0,0,5.4-5.36v-.05a5.14,5.14,0,0,0-5.4-5.4h-3V26.53Z"/><rect class="cls-9" x="141.34" y="12.16" width="3.95" height="17.93"/><path class="cls-9" d="M147.05,21.17v-.05a9.11,9.11,0,0,1,9.35-9.27,9.26,9.26,0,0,1,7.07,2.76L161,17.51a6.6,6.6,0,0,0-4.59-2,5.31,5.31,0,0,0-5.2,5.58v.05c0,3.08,2.13,5.64,5.2,5.64a6.45,6.45,0,0,0,4.71-2.1l2.52,2.53a9.19,9.19,0,0,1-7.36,3.21,9.06,9.06,0,0,1-9.19-9.23"/><polygon class="cls-9" points="164.82 12.16 168.77 12.16 168.77 19.25 176.04 19.25 176.04 12.16 179.99 12.16 179.99 30.09 176.04 30.09 176.04 22.89 168.77 22.89 168.77 30.09 164.82 30.09 164.82 12.16"/><path class="cls-9" d="M64.9,36.26h2.9c1.75,0,2.9.93,2.9,2.46v0c0,1.67-1.39,2.53-3,2.53H65.78V44H64.9Zm2.79,4.22c1.28,0,2.12-.69,2.12-1.71v0c0-1.11-.83-1.68-2.08-1.68h-2v3.41Z"/><path class="cls-9" d="M71.74,41.17v0a3,3,0,1,1,6,0v0a3,3,0,0,1-3,3A2.93,2.93,0,0,1,71.74,41.17Zm5.09,0v0a2.17,2.17,0,0,0-2.12-2.24,2.11,2.11,0,0,0-2.09,2.22v0a2.15,2.15,0,0,0,2.11,2.23A2.11,2.11,0,0,0,76.83,41.17Z"/><path class="cls-9" d="M79.24,38.28h.85v1.5a2.46,2.46,0,0,1,2.34-1.6v.92h-.07c-1.25,0-2.27.9-2.27,2.63V44h-.85Z"/><path class="cls-9" d="M87,41.84V38.28h.86v3.35a1.52,1.52,0,0,0,1.58,1.72,1.69,1.69,0,0,0,1.71-1.79V38.28h.84V44H91.1V43a2.16,2.16,0,0,1-1.95,1.12A2.09,2.09,0,0,1,87,41.84Z"/><path class="cls-9" d="M93.86,38.28h.85v1a2.17,2.17,0,0,1,2-1.12,2.09,2.09,0,0,1,2.19,2.29V44H98V40.66a1.52,1.52,0,0,0-1.58-1.72,1.68,1.68,0,0,0-1.72,1.79V44h-.85Z"/><path class="cls-9" d="M100.24,42.35v0c0-1.22,1-1.87,2.45-1.87a5.79,5.79,0,0,1,1.75.25v-.18c0-1-.62-1.55-1.7-1.55a4,4,0,0,0-1.73.41l-.26-.7a4.79,4.79,0,0,1,2.08-.48,2.54,2.54,0,0,1,1.85.63,2.26,2.26,0,0,1,.6,1.68V44h-.84v-.86a2.51,2.51,0,0,1-2.06,1A1.92,1.92,0,0,1,100.24,42.35Zm4.21-.45v-.53a6,6,0,0,0-1.67-.24c-1.06,0-1.67.46-1.67,1.15v0c0,.72.66,1.14,1.44,1.14A1.71,1.71,0,0,0,104.45,41.9Z"/><path class="cls-9" d="M110.42,36.09h1V37h-1Zm.06,2.19h.85V44h-.85Z"/><path class="cls-9" d="M113.31,38.28h.85v1a2.18,2.18,0,0,1,2-1.12,2.09,2.09,0,0,1,2.19,2.29V44h-.85V40.66a1.52,1.52,0,0,0-1.58-1.72,1.68,1.68,0,0,0-1.72,1.79V44h-.85Z"/><path class="cls-9" d="M119.77,41.17v0a3,3,0,0,1,5.23-2l-.57.6a2.29,2.29,0,0,0-1.74-.87,2.11,2.11,0,0,0-2,2.22v0a2.14,2.14,0,0,0,2.1,2.23,2.37,2.37,0,0,0,1.75-.86L125,43a3,3,0,0,1-5.27-1.86Z"/><path class="cls-9" d="M126.52,35.93h.86V44h-.86Z"/><path class="cls-9" d="M129.27,41.84V38.28h.85v3.35a1.52,1.52,0,0,0,1.58,1.72,1.69,1.69,0,0,0,1.72-1.79V38.28h.84V44h-.84V43a2.19,2.19,0,0,1-2,1.12A2.09,2.09,0,0,1,129.27,41.84Z"/><path class="cls-9" d="M135.69,43.28l.44-.61a3.36,3.36,0,0,0,2,.73c.68,0,1.18-.36,1.18-.91v0c0-.58-.67-.8-1.43-1S136,40.9,136,39.84v0a1.74,1.74,0,0,1,1.95-1.64,3.9,3.9,0,0,1,2.06.64l-.39.64a3.17,3.17,0,0,0-1.69-.55c-.68,0-1.11.35-1.11.83v0c0,.54.71.75,1.47,1s1.84.61,1.84,1.64v0a1.81,1.81,0,0,1-2,1.72A4,4,0,0,1,135.69,43.28Z"/><path class="cls-9" d="M141.7,36.09h1V37h-1Zm.06,2.19h.85V44h-.85Z"/><path class="cls-9" d="M144.24,41.17v0a3,3,0,0,1,6,0v0a3,3,0,0,1-3,3A2.93,2.93,0,0,1,144.24,41.17Zm5.09,0v0a2.17,2.17,0,0,0-2.13-2.24,2.11,2.11,0,0,0-2.09,2.22v0a2.15,2.15,0,0,0,2.11,2.23A2.12,2.12,0,0,0,149.33,41.17Zm-1.42-5.35.89.41-1.26,1.19h-.67Z"/><path class="cls-9" d="M151.74,38.28h.85v1a2.18,2.18,0,0,1,2-1.12,2.09,2.09,0,0,1,2.19,2.29V44h-.85V40.66a1.52,1.52,0,0,0-1.58-1.72,1.68,1.68,0,0,0-1.72,1.79V44h-.85Z"/><path class="cls-9" d="M161.88,38.28h.85v1.5a2.46,2.46,0,0,1,2.33-1.6v.92H165c-1.24,0-2.26.9-2.26,2.63V44h-.85Z"/><path class="cls-9" d="M168.64,43.4a2.4,2.4,0,0,0,1.8-.81l.53.48a3,3,0,0,1-2.36,1.07,3,3,0,0,1-.11-6c1.7,0,2.67,1.35,2.67,3,0,.07,0,.16,0,.29h-4.54A2,2,0,0,0,168.64,43.4Zm1.67-2.59a1.89,1.89,0,0,0-1.83-1.93,2,2,0,0,0-1.86,1.93Z"/><path class="cls-9" d="M172.23,42.35v0c0-1.22,1-1.87,2.45-1.87a5.79,5.79,0,0,1,1.75.25v-.18c0-1-.62-1.55-1.7-1.55a4,4,0,0,0-1.73.41l-.26-.7a4.79,4.79,0,0,1,2.08-.48,2.54,2.54,0,0,1,1.85.63,2.26,2.26,0,0,1,.6,1.68V44h-.84v-.86a2.53,2.53,0,0,1-2.06,1A1.93,1.93,0,0,1,172.23,42.35Zm4.21-.45v-.53a5.93,5.93,0,0,0-1.67-.24c-1.07,0-1.67.46-1.67,1.15v0c0,.72.66,1.14,1.43,1.14A1.71,1.71,0,0,0,176.44,41.9Z"/><path class="cls-9" d="M179.15,35.93H180V44h-.85Z"/></g></g></svg>