<svg xmlns="http://www.w3.org/2000/svg" viewBox="0 0 27.5 27.5"><defs><style>.cls-1{fill:#fff;}</style></defs><title>logo-ico</title><g id="Capa_2" data-name="Capa 2"><g id="Capa_1-2" data-name="Capa 1"><path class="cls-1" d="M22.05,9.47a.37.37,0,0,1-.32-.2l-.05-.09h0a9.54,9.54,0,0,0-3.34-3.34h0l-.1-.06a.36.36,0,0,1-.17-.46l.06-.13h0l.28-.67,1.17-2.78a.37.37,0,0,1,.34-.23.32.32,0,0,1,.14,0h0l.39.2.24.15A13.25,13.25,0,0,1,23.47,4a13.25,13.25,0,0,1,2.15,2.75,2.2,2.2,0,0,0,.15.24c.07.13.08.14.2.4l0,0a.38.38,0,0,1-.2.48L23,9.1l-.69.29-.12,0A.32.32,0,0,1,22.05,9.47Z"/><path class="cls-1" d="M7.59,26l-.14,0,0,0L7,25.77l-.24-.15A13.25,13.25,0,0,1,4,23.47a13.25,13.25,0,0,1-2.15-2.75,2.2,2.2,0,0,0-.15-.24c-.07-.13-.08-.14-.2-.4v0a.37.37,0,0,1,.19-.48L4.5,18.4l.69-.29.12-.05a.32.32,0,0,1,.14,0,.37.37,0,0,1,.32.2l.05.09h0a9.54,9.54,0,0,0,3.34,3.34h0l.1.06a.36.36,0,0,1,.17.46l-.06.13h0L9.1,23,7.93,25.79A.36.36,0,0,1,7.59,26Z"/><path class="cls-1" d="M26.51,18.17a.36.36,0,0,1-.14,0L23.58,17l-.68-.28-.13,0a.36.36,0,0,1-.21-.45l0-.09h0a8.71,8.71,0,0,0,.3-2.37,8.71,8.71,0,0,0-.3-2.37h0l0-.09a.36.36,0,0,1,.21-.45l.13-.05h0l.68-.28,2.79-1.15a.36.36,0,0,1,.14,0,.37.37,0,0,1,.35.22v0A3.27,3.27,0,0,1,27,10c0,.06,0,.14.06.27a14.22,14.22,0,0,1,0,6.94c0,.13-.05.21-.06.27a3.83,3.83,0,0,1-.14.43v0a.37.37,0,0,1-.35.22Z"/><path class="cls-1" d="M1,18.17A.37.37,0,0,1,.64,18v0a2,2,0,0,1-.13-.42c0-.06,0-.14-.07-.27a14.22,14.22,0,0,1,0-6.94c0-.13,0-.21.07-.27a2.16,2.16,0,0,1,.13-.43v0A.37.37,0,0,1,1,9.33a.36.36,0,0,1,.14,0L3.92,10.5l.68.28.13.05a.36.36,0,0,1,.21.45l0,.09h0a8.71,8.71,0,0,0-.3,2.37,8.71,8.71,0,0,0,.3,2.37h0l0,.09a.36.36,0,0,1-.21.45l-.13,0h0L3.92,17,1.13,18.15A.36.36,0,0,1,1,18.17Z"/><path class="cls-1" d="M19.91,26a.38.38,0,0,1-.34-.22L18.4,23l-.28-.68-.06-.13a.36.36,0,0,1,.17-.46l.1-.05h0a9.54,9.54,0,0,0,3.34-3.34h0l.05-.09a.37.37,0,0,1,.32-.2.32.32,0,0,1,.14,0l.13.06h0l.68.28,2.79,1.17a.38.38,0,0,1,.2.48l0,0a4.08,4.08,0,0,1-.2.39,2.2,2.2,0,0,0-.15.24,13.25,13.25,0,0,1-2.15,2.75,13.25,13.25,0,0,1-2.75,2.15l-.24.15c-.13.07-.14.08-.4.2l0,0-.14,0Z"/><path class="cls-1" d="M5.45,9.47a.32.32,0,0,1-.14,0l-.13-.06h0L4.5,9.1,1.72,7.93a.36.36,0,0,1-.2-.48v0A4.08,4.08,0,0,1,1.73,7a2.2,2.2,0,0,0,.15-.24A13.25,13.25,0,0,1,4,4,13.25,13.25,0,0,1,6.78,1.88L7,1.73l.4-.2h0a.35.35,0,0,1,.14,0,.36.36,0,0,1,.34.23L9.1,4.5l.28.68.06.13a.36.36,0,0,1-.17.46l-.1.06h0A9.76,9.76,0,0,0,5.83,9.17h0l-.05.09A.37.37,0,0,1,5.45,9.47Z"/><path class="cls-1" d="M16.33,5l-.11,0-.1,0h0a9.41,9.41,0,0,0-2.3-.29h-.12a9.41,9.41,0,0,0-2.3.29h0l-.1,0-.11,0a.37.37,0,0,1-.34-.23l-.05-.13h0l-.28-.68L9.35,1.13a.39.39,0,0,1,.2-.49h0A3.27,3.27,0,0,1,10,.49l.27-.06A13.51,13.51,0,0,1,13.69,0h.12a13.51,13.51,0,0,1,3.41.43l.27.06a3.83,3.83,0,0,1,.43.14h0a.39.39,0,0,1,.2.49L17,3.92l-.28.68,0,.13a.37.37,0,0,1-.34.23Z"/><path class="cls-1" d="M13.69,27.5a13.51,13.51,0,0,1-3.41-.43L10,27a2.16,2.16,0,0,1-.43-.13h0a.39.39,0,0,1-.2-.49l1.15-2.79.28-.68.05-.13a.37.37,0,0,1,.34-.23l.11,0,.1,0h0a9.41,9.41,0,0,0,2.3.29h.12a9.41,9.41,0,0,0,2.3-.29h0l.1,0,.11,0a.37.37,0,0,1,.34.23l0,.13h0l.27.68,1.15,2.79a.39.39,0,0,1-.2.49h0a2,2,0,0,1-.42.13l-.27.07a13.51,13.51,0,0,1-3.41.43Z"/></g></g></svg>