<svg xmlns="http://www.w3.org/2000/svg" viewBox="0 0 21.19 27.8"><defs><style>.cls-1{fill:#f1f1f1;}</style></defs><title>map_1</title><g id="Capa_2" data-name="Capa 2"><g id="Capa_1-2" data-name="Capa 1"><path class="cls-1" d="M18.84,3.12C17,1.05,14.22,0,10.55,0S4.15,1.05,2.32,3.12A10.51,10.51,0,0,0,.05,10.74C.74,18,7.35,25.5,9.61,27.57a.88.88,0,0,0,.59.23h.59a.9.9,0,0,0,.62-.25c5.81-5.65,9.18-11.46,9.74-16.79a10.6,10.6,0,0,0-2.31-7.64Zm.56,7.44C18.9,15.4,15.82,20.72,10.49,26c-2.09-2-8.08-9-8.7-15.44A8.94,8.94,0,0,1,3.64,4.27C5.12,2.6,7.45,1.76,10.58,1.76S16,2.6,17.51,4.27a8.93,8.93,0,0,1,1.89,6.29Z"/><path class="cls-1" d="M9.51,6.37a4.43,4.43,0,1,0,5.41,3.16A4.43,4.43,0,0,0,9.51,6.37Zm1.8,6.87A2.67,2.67,0,1,1,13.22,10a2.67,2.67,0,0,1-1.91,3.26Z"/></g></g></svg>