<svg xmlns="http://www.w3.org/2000/svg" viewBox="0 0 27.98 23"><defs><style>.cls-1{fill:#58585a;}</style></defs><title>menu-burger</title><g id="Capa_2" data-name="Capa 2"><g id="Capa_1-2" data-name="Capa 1"><path class="cls-1" d="M.91,1.81H27.07A.91.91,0,0,0,28,.91.91.91,0,0,0,27.07,0H.91a.91.91,0,1,0,0,1.81Z"/><path class="cls-1" d="M27.07,10.59H.91a.9.9,0,1,0,0,1.8H27.07a.9.9,0,1,0,0-1.8Z"/><path class="cls-1" d="M27.07,21.19H.91A.91.91,0,1,0,.91,23H27.07a.91.91,0,1,0,0-1.81Z"/></g></g></svg>