<svg xmlns="http://www.w3.org/2000/svg" viewBox="0 0 337.66 337.66"><defs><style>.cls-1{fill:#e5e5e5;}.cls-2{fill:#65cecc;}.cls-3{fill:#e9cd4b;}.cls-4{fill:#de2f55;}.cls-5{fill:#816892;}</style></defs><title>noticias</title><g id="Capa_2" data-name="Capa 2"><g id="Capa_1-2" data-name="Capa 1"><circle class="cls-1" cx="168.83" cy="168.83" r="168.83"/><path class="cls-2" d="M168.83,101.28l23.31-19.45,10.47,28.5,29.91-5.19-5.19,29.91,28.5,10.47-19.45,23.31,19.45,23.31-28.5,10.47,5.19,29.91-29.91-5.19-10.47,28.5-23.31-19.45-23.31,19.45-10.47-28.5-29.91,5.19,5.19-29.91-28.5-10.47,19.45-23.31L81.83,145.52l28.5-10.47-5.19-29.91,29.91,5.19,10.47-28.5Z"/><path class="cls-3" d="M132.83,186.83h12v30h-12Z"/><path class="cls-4" d="M188.38,134.14a54.43,54.43,0,0,1-22.09,4.69H138.83v48h27.46a54.43,54.43,0,0,1,22.09,4.69l13.45,7.31v-72Z"/><path class="cls-3" d="M114.83,150.83h12v24h-12Z"/><path class="cls-5" d="M126.83,138.83h12v48h-12Z"/><path d="M192.14,258.83a3.05,3.05,0,0,1-1.92-.69l-21.39-17.85-21.39,17.85a3,3,0,0,1-4.74-1.27l-9.6-26.15-27.44,4.76a3,3,0,0,1-3.47-2.45,2.91,2.91,0,0,1,0-1l4.75-27.45L80.8,195A3,3,0,0,1,79,191.11a2.94,2.94,0,0,1,.51-.89l17.84-21.39L79.53,147.44a3,3,0,0,1,.38-4.22,2.93,2.93,0,0,1,.89-.52l26.14-9.6-4.75-27.44a3,3,0,0,1,3.47-3.47L133.1,107l9.6-26.15A3,3,0,0,1,146.56,79a2.78,2.78,0,0,1,.88.51l21.39,17.84,21.39-17.84a3,3,0,0,1,4.23.38,3.16,3.16,0,0,1,.51.89l9.6,26.15L232,102.19a3,3,0,0,1,3.47,2.44,3.56,3.56,0,0,1,0,1l-4.76,27.44,26.14,9.6a3,3,0,0,1,1.79,3.85,2.93,2.93,0,0,1-.52.89l-17.84,21.39,17.84,21.39a3,3,0,0,1-.38,4.23,2.91,2.91,0,0,1-.89.51l-26.14,9.6L235.48,232a3,3,0,0,1-2.45,3.47,3.49,3.49,0,0,1-1,0l-27.45-4.76L195,256.87a3,3,0,0,1-2.82,2Zm-23.31-25.45a3,3,0,0,1,1.92.7l20,16.72,9-24.5a3,3,0,0,1,3.33-1.92l25.72,4.46-4.46-25.72a3,3,0,0,1,1.92-3.33l24.5-9-16.72-20.05a3,3,0,0,1,0-3.84l16.72-20-24.5-9a3,3,0,0,1-1.92-3.33l4.46-25.71-25.72,4.46a3,3,0,0,1-3.33-1.93l-9-24.5-20.05,16.72a3,3,0,0,1-3.84,0l-20-16.72-9,24.5a3,3,0,0,1-3.33,1.93l-25.71-4.46,4.45,25.71a3,3,0,0,1-1.92,3.33l-24.5,9,16.72,20a3,3,0,0,1,0,3.84L86.86,190.8l24.5,9a3,3,0,0,1,1.92,3.33l-4.45,25.72,25.71-4.46a3,3,0,0,1,3.33,1.92l9,24.5,20-16.72a3,3,0,0,1,1.92-.7Z"/><path d="M203.36,124.25a3,3,0,0,0-3,0l-13.24,7.2a51.06,51.06,0,0,1-20.87,4.43H126.83a3,3,0,0,0-3,3h0v9h-9a3,3,0,0,0-3,3h0v24a3,3,0,0,0,3,3h9v9a3,3,0,0,0,3,3h3v27a3,3,0,0,0,3,3h12a3,3,0,0,0,3-3h0v-27h18.46A51.2,51.2,0,0,1,187,194.15l13.45,7.32a3,3,0,0,0,4.43-2.64v-72a3,3,0,0,0-1.47-2.58Zm-85.53,47.58v-18h6v18Zm12-30h6v42h-6Zm12,72h-6v-24h6Zm57-20-9.23-5a57.1,57.1,0,0,0-23.31-4.95H141.83v-42h24.46a57.1,57.1,0,0,0,23.52-5.05l9-4.9Z"/><path d="M210.83,159.83h15v6h-15Z"/><path d="M210.24,144.89l15-3,1.18,5.88-15,3Z"/><path d="M210.24,180.79l1.18-5.89,15,3-1.18,5.89Z"/></g></g></svg>