<svg xmlns="http://www.w3.org/2000/svg" viewBox="0 0 56 56"><defs><style>.cls-1{fill:#58585a;}</style></defs><title>perfil</title><g id="Capa_2" data-name="Capa 2"><g id="Capa_1-2" data-name="Capa 1"><path class="cls-1" d="M55.85,53.55c-.67-3-5.74-21.47-27.87-21.47C4,32.08.06,53.73,0,54a1.8,1.8,0,0,0,.39,1.43A1.79,1.79,0,0,0,1.75,56h52.5A1.76,1.76,0,0,0,56,54.24a1.62,1.62,0,0,0-.15-.69ZM4,52.49c1.53-4.93,7-16.9,24-16.9s22.46,12,24,16.9Z"/><path class="cls-1" d="M28,28.78A14.39,14.39,0,1,0,13.6,14.39,14.4,14.4,0,0,0,28,28.78ZM28,3.51A10.88,10.88,0,1,1,17.11,14.39,10.88,10.88,0,0,1,28,3.51Z"/></g></g></svg>