<svg xmlns="http://www.w3.org/2000/svg" viewBox="0 0 112.12 112.12"><defs><style>.cls-1{fill:#e5e5e5;}.cls-2{fill:#ffa733;}.cls-3{fill:#ff6243;}.cls-4{fill:#9bc9ff;}.cls-5{fill:#c70024;}.cls-6{fill:#2488ff;}.cls-7{fill:#acabb1;}.cls-8{fill:#787680;}.cls-9{fill:#1d1d1f;}.cls-10{fill:#fff;}</style></defs><title>prestadores</title><g id="Capa_2" data-name="Capa 2"><g id="Capa_1-2" data-name="Capa 1"><circle class="cls-1" cx="56.06" cy="56.06" r="56.06"/><polygon class="cls-2" points="54.47 22.69 38.27 38.9 38.27 85.82 70.67 85.82 70.67 38.9 54.47 22.69"/><rect class="cls-3" x="63.74" y="54.41" width="5.91" height="8.77"/><rect class="cls-3" x="45.1" y="41.86" width="5.91" height="8.77"/><rect class="cls-3" x="54.42" y="41.86" width="5.91" height="8.77"/><rect class="cls-3" x="63.74" y="41.86" width="5.91" height="8.77"/><rect class="cls-3" x="45.1" y="54.41" width="5.91" height="8.77"/><rect class="cls-3" x="54.42" y="54.41" width="5.91" height="8.77"/><rect class="cls-3" x="51.75" y="69.1" width="11.26" height="16.72"/><rect class="cls-4" x="60.83" y="54.41" width="5.91" height="8.77"/><polygon class="cls-3" points="57.13 25.36 54.47 22.69 38.27 38.9 38.27 85.82 43.59 85.82 43.59 38.9 57.13 25.36"/><polygon class="cls-3" points="81.98 44.94 54.47 17.43 26.96 44.94 32.22 44.94 54.47 22.69 76.72 44.94 81.98 44.94"/><polygon class="cls-5" points="55.8 24.02 76.72 44.94 79.38 44.94 57.13 22.69 55.8 24.02"/><polygon class="cls-5" points="54.47 17.43 26.96 44.94 29.62 44.94 55.8 18.77 54.47 17.43"/><polygon class="cls-2" points="70.67 33.64 70.67 17 62.22 17 62.22 25.19 70.67 33.64"/><polygon class="cls-3" points="64.65 25.19 64.65 17 62.22 17 62.22 25.19 70.67 33.64 70.67 31.21 64.65 25.19"/><rect class="cls-4" x="42.2" y="41.86" width="5.91" height="8.77"/><rect class="cls-4" x="51.52" y="41.86" width="5.91" height="8.77"/><rect class="cls-4" x="60.83" y="41.86" width="5.91" height="8.77"/><rect class="cls-4" x="42.2" y="54.41" width="5.91" height="8.77"/><rect class="cls-6" x="42.2" y="41.86" width="2.95" height="8.77"/><rect class="cls-6" x="42.2" y="54.41" width="2.95" height="8.77"/><rect class="cls-4" x="51.52" y="54.41" width="5.91" height="8.77"/><rect class="cls-6" x="51.52" y="41.86" width="2.95" height="8.77"/><rect class="cls-6" x="51.52" y="54.41" width="2.95" height="8.77"/><rect class="cls-6" x="60.83" y="41.86" width="2.95" height="8.77"/><rect class="cls-6" x="60.83" y="54.41" width="2.95" height="8.77"/><rect class="cls-7" x="48.84" y="69.1" width="11.26" height="16.72"/><rect class="cls-8" x="48.84" y="69.1" width="3.72" height="16.72"/><rect class="cls-3" x="38.27" y="81.74" width="10.57" height="4.08"/><rect class="cls-3" x="60.1" y="81.74" width="10.57" height="4.08"/><rect class="cls-5" x="38.27" y="81.74" width="5.33" height="4.08"/><rect class="cls-5" x="60.1" y="81.74" width="5.33" height="4.08"/><rect class="cls-7" x="74.93" y="73.01" width="9.28" height="6.33"/><rect class="cls-8" x="74.93" y="73.01" width="3.31" height="6.33"/><rect class="cls-9" x="55.69" y="75.88" width="2.08" height="2.08"/><rect class="cls-10" x="65.7" y="73.16" width="2.08" height="6.63"/><rect class="cls-10" x="65.7" y="66.23" width="2.08" height="2.08"/><rect class="cls-10" x="65.7" y="69.7" width="2.08" height="2.08"/><path class="cls-9" d="M76.29,46h8.19l-30-30-30,30h8.2l4.58-4.58V86.86H71.71V41.4ZM31.79,43.9H29.47l25-25,25,25H77.15L54.47,21.22ZM49.88,84.78V70.14h9.18V84.78ZM69.63,80.7H62.87v2.07h6.76v2H61.14V68.07H47.8V84.78H39.3v-2h6.77V80.7H39.3V74.05h5.85V72H39.3V39.33l7.5-7.5h9.33V29.75H48.88l5.59-5.59L69.63,39.33Z"/><polygon class="cls-9" points="63.26 21.29 67.28 21.29 67.28 19.22 63.26 19.22 63.26 18.04 69.63 18.04 69.63 30.87 71.71 30.87 71.71 15.96 61.18 15.96 61.18 22.42 63.26 22.42 63.26 21.29"/><path class="cls-9" d="M41.16,51.66h8V40.82h-8Zm2.07-8.77h3.84v6.7H43.23Z"/><path class="cls-9" d="M50.48,51.66h8V40.82h-8V51.66Zm2.07-8.77h3.83v6.7H52.55v-6.7Z"/><path class="cls-9" d="M59.79,51.66h8V40.82h-8Zm2.08-8.77H65.7v6.7H61.87Z"/><path class="cls-9" d="M41.16,64.22h8V53.37h-8Zm2.07-8.77h3.84v6.69H43.23Z"/><path class="cls-9" d="M50.48,64.22h8V53.37h-8V64.22Zm2.07-8.77h3.83v6.69H52.55V55.45Z"/><path class="cls-9" d="M59.79,64.22h8V53.37h-8Zm2.08-8.77H65.7v6.69H61.87Z"/><rect class="cls-9" x="23.24" y="84.78" width="12.25" height="2.08"/><path class="cls-9" d="M83.84,84.78v-4.4h1.41V72H73.89v8.41H75.3v4.4H73.44v2.08H85.69V84.78ZM76,74.05h7.2v4.26H76Zm1.4,6.33h4.39v4.4H77.37Z"/><rect class="cls-9" x="76.94" y="75.14" width="5.26" height="2.08"/><rect class="cls-10" x="49.83" y="35.83" width="2.08" height="2.08"/><rect class="cls-10" x="46.37" y="35.83" width="2.08" height="2.08"/><rect class="cls-10" x="53.29" y="35.83" width="9.27" height="2.08"/></g></g></svg>