<svg xmlns="http://www.w3.org/2000/svg" viewBox="0 0 246.4 246.4"><defs><style>.cls-1{fill:#006969;}</style></defs><title>share-wp</title><g id="Capa_2" data-name="Capa 2"><g id="Capa_1-2" data-name="Capa 1"><path class="cls-1" d="M182.33,141.59c-.48-.24-18.45-9.08-21.64-10.23a12.42,12.42,0,0,0-4.18-.93,7.15,7.15,0,0,0-6.06,3.59c-1.79,2.67-7.22,9-8.9,10.91-.22.25-.52.55-.7.55s-2.94-1.14-3.78-1.51c-19.27-8.37-33.9-28.5-35.9-31.89a1.84,1.84,0,0,1-.3-.71,6,6,0,0,1,1-1.25c1-1,2-2.24,3.07-3.48.48-.58,1-1.16,1.45-1.71a19.76,19.76,0,0,0,2.91-4.64l.41-.81a8.37,8.37,0,0,0-.25-7.88c-.42-.85-8-19.16-8.81-21.08-1.94-4.64-4.51-6.8-8.07-6.8-.33,0,0,0-1.38.06-1.69.07-10.88,1.28-14.94,3.84C72,70.34,64.71,79,64.71,94.22c0,13.7,8.7,26.64,12.43,31.56.1.12.27.38.51.74,14.3,20.88,32.12,36.36,50.2,43.57,17.39,6.95,25.63,7.75,30.31,7.75h0c2,0,3.54-.15,4.93-.28l.88-.09c6-.53,19.21-7.38,22.22-15.72,2.36-6.58,3-13.76,1.41-16.37-1.07-1.78-2.93-2.66-5.28-3.79Z"/><path class="cls-1" d="M125.39,0c-66.74,0-121,53.88-121,120.11A119.23,119.23,0,0,0,21,180.85L.17,242.17a3.21,3.21,0,0,0,3,4.23,3.27,3.27,0,0,0,1-.15l63.94-20.32a121.8,121.8,0,0,0,57.28,14.28c66.72,0,121-53.87,121-120.1S192.11,0,125.39,0Zm0,215.19a95.86,95.86,0,0,1-52.75-15.72,3.27,3.27,0,0,0-1.76-.53,3.17,3.17,0,0,0-1,.16l-32,10.18,10.34-30.51a3.24,3.24,0,0,0-.45-2.92,93.76,93.76,0,0,1-18.25-55.74c0-52.43,43-95.09,95.86-95.09s95.85,42.66,95.85,95.09-43,95.08-95.85,95.08Z"/></g></g></svg>