<svg xmlns="http://www.w3.org/2000/svg" viewBox="0 0 133.21 246.39"><defs><style>.cls-1{fill:#006969;}</style></defs><title>share-fb</title><g id="Capa_2" data-name="Capa 2"><g id="Capa_1-2" data-name="Capa 1"><path class="cls-1" d="M128.2.05,96.25,0c-35.9,0-59.1,23.8-59.1,60.64v28H5a5,5,0,0,0-5,5v40.51a5,5,0,0,0,5,5H37.15V241.37a5,5,0,0,0,5,5h41.9a5,5,0,0,0,5-5V139.15h37.56a5,5,0,0,0,5-5l0-40.51a5.08,5.08,0,0,0-1.48-3.56,5,5,0,0,0-3.56-1.46H89.11V64.89c0-11.39,2.72-17.17,17.55-17.17h21.53a5,5,0,0,0,5-5V5.08a5,5,0,0,0-5-5Z"/></g></g></svg>