<svg xmlns="http://www.w3.org/2000/svg" viewBox="0 0 234.12 190.18"><defs><style>.cls-1{fill:#006969;}</style></defs><title>share-tw</title><g id="Capa_2" data-name="Capa 2"><g id="Capa_1-2" data-name="Capa 1"><path class="cls-1" d="M234.12,22.5a96.21,96.21,0,0,1-27.58,7.59,48.39,48.39,0,0,0,21.15-26.6,95.59,95.59,0,0,1-30.58,11.65,48,48,0,0,0-83,32.87A49.63,49.63,0,0,0,115.32,59a136.34,136.34,0,0,1-99-50.17A48,48,0,0,0,31.15,72.87a47.44,47.44,0,0,1-21.71-6v.58a48.14,48.14,0,0,0,38.5,47.15,49.65,49.65,0,0,1-12.64,1.63,48.29,48.29,0,0,1-9.07-.84,48.18,48.18,0,0,0,44.86,33.36,96.49,96.49,0,0,1-59.66,20.5A103.29,103.29,0,0,1,0,168.61a135.88,135.88,0,0,0,73.65,21.57c88.3,0,136.61-73.16,136.61-136.59l-.15-6.22a96.72,96.72,0,0,0,24-24.87Z"/></g></g></svg>