<svg xmlns="http://www.w3.org/2000/svg" viewBox="0 0 29 29"><defs><style>.cls-1{fill:#f1f1f1;}</style></defs><title>tel_1</title><g id="Capa_2" data-name="Capa 2"><g id="Capa_1-2" data-name="Capa 1"><path class="cls-1" d="M28.9,21.68a18.34,18.34,0,0,0-6.8-6.8.76.76,0,0,0-.92.13l-3.05,3a1.34,1.34,0,0,1-1.89,0L11,12.76a1.34,1.34,0,0,1,0-1.89l3-3a.76.76,0,0,0,.13-.92A18.34,18.34,0,0,0,7.32.1.77.77,0,0,0,6.4.22L1.86,4.76a6.82,6.82,0,0,0-1.81,4A6.85,6.85,0,0,0,1,13.17l0,0A57.68,57.68,0,0,0,15.8,28l0,0a6.61,6.61,0,0,0,3.52,1c.3,0,.6,0,.9-.05a6.82,6.82,0,0,0,4-1.81l4.54-4.54A.77.77,0,0,0,28.9,21.68ZM7.06,1.73a16.67,16.67,0,0,1,5.43,5.43l-1.11,1.1L6,2.83Zm16.1,24.32a5.68,5.68,0,0,1-6.5.7A56.08,56.08,0,0,1,2.25,12.34,5.68,5.68,0,0,1,3,5.84L4.87,3.92,10.3,9.35l-.43.43a2.85,2.85,0,0,0,0,4.06l5.29,5.3a2.87,2.87,0,0,0,4.06,0l.43-.44,5.43,5.43Zm3-3-5.43-5.43,1.1-1.11a16.67,16.67,0,0,1,5.43,5.43Z"/></g></g></svg>