<svg xmlns="http://www.w3.org/2000/svg" viewBox="0 0 337.66 337.66"><defs><style>.cls-1{fill:#e5e5e5;}.cls-2{fill:#e9cd4b;}.cls-3{fill:#65cecc;}</style></defs><title>tramites</title><g id="Capa_2" data-name="Capa 2"><g id="Capa_1-2" data-name="Capa 1"><circle class="cls-1" cx="168.83" cy="168.83" r="168.83"/><circle class="cls-2" cx="98.43" cy="108.93" r="14.25"/><circle class="cls-2" cx="98.43" cy="108.93" r="14.25"/><path class="cls-3" d="M226.7,185.9a14.25,14.25,0,1,0-28.5,0H175.39v22.8a14.26,14.26,0,1,1,0,28.51V260h74.12V185.9Z"/><path class="cls-2" d="M229.55,211.55a11.4,11.4,0,1,0-18,9.28l-4.81,19.23h22.8l-4.8-19.23a11.37,11.37,0,0,0,4.8-9.28Z"/><path d="M169.69,106.08H164V94.68h-5.7v11.4h-8.55V94.68H144v11.4H115.27a17.11,17.11,0,1,0,0,5.7h54.42ZM98.43,120.33a11.4,11.4,0,1,1,11.4-11.4A11.39,11.39,0,0,1,98.43,120.33Z"/><path d="M249.51,262.86H175.39a2.85,2.85,0,0,1-2.85-2.85h0v-22.8a2.85,2.85,0,0,1,2.85-2.85h0a11.41,11.41,0,1,0,0-22.81,2.85,2.85,0,0,1-2.85-2.85h0V185.9a2.85,2.85,0,0,1,2.85-2.85h20.19a17.11,17.11,0,0,1,33.74,0h20.19a2.85,2.85,0,0,1,2.85,2.84h0V260a2.86,2.86,0,0,1-2.85,2.85Zm-71.27-5.7h68.42V188.75h-20a2.86,2.86,0,0,1-2.85-2.85h0a11.4,11.4,0,1,0-22.8,0,2.86,2.86,0,0,1-2.85,2.85h-20v17.34a17.1,17.1,0,0,1,0,33.73Z"/><path d="M229.55,242.91h-22.8a2.86,2.86,0,0,1-2.85-2.85,3.1,3.1,0,0,1,.08-.69l4.38-17.5a14.25,14.25,0,1,1,20.14-.55l-.55.55,4.37,17.5a2.85,2.85,0,0,1-2.08,3.45,2.61,2.61,0,0,1-.69.09Zm-19.15-5.7h15.5L222,221.52a2.86,2.86,0,0,1,1.11-3,8.56,8.56,0,1,0-11.92-2,8.63,8.63,0,0,0,2,2,2.83,2.83,0,0,1,1.11,3Z"/><path d="M189.65,106.08H175.39v5.7h14.26a20,20,0,0,1,0,39.91h-57a37.06,37.06,0,1,0,0,74.11h21.62l-17.94,17.94,4,4L163.16,225a2.85,2.85,0,0,0,0-4h0l-22.81-22.81-4,4,17.94,17.94H132.64a31.36,31.36,0,1,1,0-62.71h57a25.66,25.66,0,0,0,0-51.31Z"/></g></g></svg>