<svg xmlns="http://www.w3.org/2000/svg" viewBox="0 0 112.12 112.12"><defs><style>.cls-1{fill:#e5e5e5;}.cls-2{fill:#fff;}.cls-3{fill:#cbbba0;}.cls-4{fill:#f9b233;}.cls-5{fill:#e30613;}.cls-6{fill:#86cbed;}.cls-7{fill:#575756;}.cls-8{fill:#1d1d1b;}</style></defs><title>transporte</title><g id="Capa_2" data-name="Capa 2"><g id="Capa_1-2" data-name="Capa 1"><circle class="cls-1" cx="56.06" cy="56.06" r="56.06"/><rect class="cls-2" x="26.11" y="41.92" width="60.42" height="13.62"/><rect class="cls-3" x="26.11" y="68.22" width="60.42" height="2.92"/><rect class="cls-4" x="26.11" y="55.55" width="60.42" height="12.67"/><rect class="cls-5" x="81.66" y="61.39" width="4.87" height="3.9"/><rect class="cls-6" x="30.98" y="45.8" width="16.57" height="12.67"/><rect class="cls-6" x="52.42" y="45.8" width="16.57" height="12.67"/><rect class="cls-6" x="73.86" y="45.8" width="12.67" height="12.67"/><path class="cls-7" d="M45.6,71.14a5.85,5.85,0,1,1-5.85-5.85,5.85,5.85,0,0,1,5.85,5.85Z"/><path class="cls-2" d="M42.67,71.14a2.92,2.92,0,1,1-2.92-2.92,2.92,2.92,0,0,1,2.92,2.92Z"/><path class="cls-7" d="M78.73,71.14a5.85,5.85,0,1,1-5.84-5.85,5.84,5.84,0,0,1,5.84,5.85Z"/><path class="cls-2" d="M75.81,71.14a2.93,2.93,0,1,1-2.92-2.92,2.92,2.92,0,0,1,2.92,2.92Z"/><path class="cls-8" d="M72.89,75a3.88,3.88,0,1,1,3.87-3.88A3.88,3.88,0,0,1,72.89,75Zm0-5.85a2,2,0,1,0,2,2,2,2,0,0,0-2-2Z"/><path class="cls-8" d="M39.75,75a3.88,3.88,0,1,1,3.88-3.88A3.88,3.88,0,0,1,39.75,75Zm0-5.85a2,2,0,1,0,2,2,2,2,0,0,0-2-2Z"/><rect class="cls-2" x="35.85" y="60.44" width="1.95" height="1.91"/><rect class="cls-2" x="32.93" y="60.44" width="1.95" height="1.91"/><rect class="cls-2" x="30" y="60.44" width="1.95" height="1.91"/><rect class="cls-8" x="75.81" y="60.44" width="2.92" height="1.91"/><path class="cls-2" d="M78.43,51.35,77.08,50l2-2,1.35,1.35Z"/><path class="cls-2" d="M78.43,56.22l-1.35-1.35,6.34-6.33,1.35,1.35Z"/><path class="cls-2" d="M59.43,51.35,58.08,50l2-2,1.35,1.35Z"/><path class="cls-2" d="M59.43,56.22l-1.35-1.35,6.33-6.33,1.35,1.35Z"/><path class="cls-2" d="M37.5,51.35,36.15,50l2-2,1.35,1.35Z"/><path class="cls-2" d="M37.5,56.22l-1.35-1.35,6.34-6.33,1.35,1.35Z"/><path class="cls-8" d="M87.48,67.34V41H82.61V37H80.7V41H53.37v-1h2V38H28.06v1.91h2v1H25.15V72.09H33a6.8,6.8,0,0,0,13.46,0H66.15a6.8,6.8,0,0,0,13.47,0h7.86V69.25h0V67.34ZM31.93,39.93H51.46v1H31.93ZM33,70.18h-6v-.93h6.16a5.93,5.93,0,0,0-.2.93ZM39.75,76a4.89,4.89,0,1,1,4.89-4.89A4.89,4.89,0,0,1,39.75,76Zm26.4-5.85H46.48a7,7,0,0,0-.22-1H66.38a7,7,0,0,0-.23,1ZM72.89,76a4.89,4.89,0,1,1,4.89-4.89A4.9,4.9,0,0,1,72.89,76Zm12.68-5.85H79.62a6.86,6.86,0,0,0-.22-1l6.17,0Zm0-5.84h-3v-2h3Zm0-3.9H80.7v5.81h4.87v1.08l-7.1-.06a6.79,6.79,0,0,0-11.17,0h-22a6.8,6.8,0,0,0-11.22.08h-7V56.5h3v2.92H48.5V56.5h3v2.92H69.94V56.5h3v2.92H85.57ZM31.93,57.51V46.76H46.59V57.51Zm21.44,0V46.76H68V57.51Zm32.2,0H74.81V46.76H85.57Zm0-12.66H72.91v9.74h-3V44.85H51.46v9.74h-3V44.85H30v9.74h-3V42.86H85.57Z"/><rect class="cls-8" x="80.7" y="34.11" width="1.91" height="1.95"/></g></g></svg>