<svg xmlns="http://www.w3.org/2000/svg" viewBox="0 0 40.71 40.71"><defs><style>.cls-1{fill:#58585a;}.cls-2{fill:#f1f1f1;}</style></defs><title>twit-d</title><g id="Capa_2" data-name="Capa 2"><g id="Capa_1-2" data-name="Capa 1"><path class="cls-1" d="M40.71,20.36A20.36,20.36,0,1,1,20.36,0,20.35,20.35,0,0,1,40.71,20.36Z"/><path class="cls-2" d="M32.82,14.63A9.7,9.7,0,0,1,30,15.4a4.88,4.88,0,0,0,2.14-2.7,9.48,9.48,0,0,1-3.09,1.18,4.87,4.87,0,0,0-8.42,3.33,5,5,0,0,0,.13,1.11,13.82,13.82,0,0,1-10-5.08,4.82,4.82,0,0,0-.66,2.44,4.87,4.87,0,0,0,2.16,4.05,4.85,4.85,0,0,1-2.2-.6v.06A4.88,4.88,0,0,0,14,24a4.83,4.83,0,0,1-1.28.17,4.53,4.53,0,0,1-.91-.09,4.86,4.86,0,0,0,4.54,3.38,9.71,9.71,0,0,1-6,2.08,11.12,11.12,0,0,1-1.16-.06,13.84,13.84,0,0,0,21.3-11.66c0-.21,0-.42,0-.63a10,10,0,0,0,2.42-2.52Z"/></g></g></svg>