<svg xmlns="http://www.w3.org/2000/svg" viewBox="0 0 23.55 23.55"><defs><style>.cls-1{fill:#55acee;}.cls-2{fill:#f1f2f2;}</style></defs><title>twitter</title><g id="Capa_2" data-name="Capa 2"><g id="Capa_1-2" data-name="Capa 1"><path class="cls-1" d="M23.55,11.77A11.78,11.78,0,1,1,11.77,0,11.77,11.77,0,0,1,23.55,11.77Z"/><path class="cls-2" d="M19,8.46a5.26,5.26,0,0,1-1.62.44,2.81,2.81,0,0,0,1.24-1.55A5.87,5.87,0,0,1,16.82,8a2.78,2.78,0,0,0-2.05-.89A2.82,2.82,0,0,0,12,10a3.39,3.39,0,0,0,.07.64,8,8,0,0,1-5.8-2.94,2.81,2.81,0,0,0,.87,3.75,2.74,2.74,0,0,1-1.27-.35v0a2.82,2.82,0,0,0,2.26,2.76,3.07,3.07,0,0,1-.74.1,3,3,0,0,1-.53-.05,2.81,2.81,0,0,0,2.63,1.95,5.64,5.64,0,0,1-3.5,1.2c-.23,0-.45,0-.67,0a8,8,0,0,0,12.32-6.75c0-.12,0-.24,0-.36A5.76,5.76,0,0,0,19,8.46Z"/></g></g></svg>