<svg xmlns="http://www.w3.org/2000/svg" viewBox="0 0 26.81 22.14"><defs><style>.cls-1{fill:#58585a;}</style></defs><title>twit</title><g id="Capa_2" data-name="Capa 2"><g id="Capa_1-2" data-name="Capa 1"><path class="cls-1" d="M25.63,2.58A3.06,3.06,0,0,0,26,1.36a.85.85,0,0,0-1.4-.68,5.87,5.87,0,0,1-2.35.89A5.73,5.73,0,0,0,18.35,0a6.76,6.76,0,0,0-4,1.46,6,6,0,0,0-2,4.79,12.94,12.94,0,0,1-9-5A.94.94,0,0,0,2.6.86a.84.84,0,0,0-.71.43,5.89,5.89,0,0,0-.17,5.88.73.73,0,0,0-.24.07A.84.84,0,0,0,1,7.93a5.45,5.45,0,0,0,2.06,4.76l0,0a.89.89,0,0,0-.25.79,5.2,5.2,0,0,0,3.47,3.76A10.74,10.74,0,0,1,1,18.18a.85.85,0,0,0-.54,1.58A16.89,16.89,0,0,0,8.9,22.14a15.48,15.48,0,0,0,9-2.88c6.18-5.16,6.43-11,6.35-12.82a19.41,19.41,0,0,0,2.33-2.55.85.85,0,0,0-1-1.31ZM23,5.29a.86.86,0,0,0-.41.85c0,.07.8,6.38-5.69,11.79a13.84,13.84,0,0,1-8,2.5,14.49,14.49,0,0,1-4.56-.76,11.43,11.43,0,0,0,4.6-2,.86.86,0,0,0,.31-.91.87.87,0,0,0-.74-.62,5.61,5.61,0,0,1-3.57-1.82,11,11,0,0,0,1.1-.1.85.85,0,0,0,.14-1.66s-2.79-.91-3.39-3.18a5.83,5.83,0,0,0,1.27.2A.82.82,0,0,0,4.89,9,.85.85,0,0,0,4.6,8,4.64,4.64,0,0,1,2.87,3.35,15.54,15.54,0,0,0,13.35,8.08a.86.86,0,0,0,.82-1.23c0-.08-.87-1.93,1.32-4.13a5.08,5.08,0,0,1,2.86-1,4.19,4.19,0,0,1,3,1.37.89.89,0,0,0,.71.25c.09,0,.45-.06.92-.17l-.31.24a.85.85,0,0,0,.62,1.54l.17,0a3,3,0,0,1-.48.38Z"/></g></g></svg>