<svg xmlns="http://www.w3.org/2000/svg" viewBox="0 0 112.12 112.12"><defs><style>.cls-1{fill:#e5e5e5;}.cls-2{fill:#ffa733;}.cls-3{fill:#ff6243;}.cls-4{fill:#c70024;}.cls-5{fill:#acabb1;}.cls-6{fill:#787680;}.cls-7{fill:#9bc9ff;}.cls-8{fill:#2488ff;}.cls-9{fill:#1d1d1f;}.cls-10{fill:#fff;}</style></defs><title>vivienda</title><g id="Capa_2" data-name="Capa 2"><g id="Capa_1-2" data-name="Capa 1"><circle class="cls-1" cx="56.06" cy="56.06" r="56.06"/><polygon class="cls-2" points="57 31.84 38.82 50.02 38.82 81.39 75.19 81.39 75.19 50.02 57 31.84"/><rect class="cls-3" x="53.28" y="62.63" width="12.64" height="18.76"/><rect class="cls-3" x="69.31" y="62.63" width="5.07" height="8.18"/><rect class="cls-3" x="44.81" y="62.63" width="5.07" height="8.18"/><polygon class="cls-3" points="60.16 35 57 31.84 38.82 50.02 38.82 81.39 45.14 81.39 45.14 50.02 60.16 35"/><polygon class="cls-3" points="87.87 56.81 57 25.94 26.14 56.81 32.04 56.81 57 31.84 81.97 56.81 87.87 56.81"/><polygon class="cls-4" points="58.63 33.46 81.97 56.81 85.21 56.81 60.25 31.84 58.63 33.46"/><polygon class="cls-4" points="57 25.94 26.14 56.81 29.38 56.81 58.63 27.56 57 25.94"/><polygon class="cls-2" points="75.19 44.12 75.19 25.45 65.71 25.45 65.71 34.64 75.19 44.12"/><polygon class="cls-3" points="69.25 34.64 69.25 25.45 65.71 25.45 65.71 34.64 75.19 44.12 75.19 40.57 69.25 34.64"/><rect class="cls-5" x="50.69" y="62.63" width="12.64" height="18.76"/><rect class="cls-6" x="50.69" y="62.63" width="3.72" height="18.76"/><rect class="cls-3" x="38.82" y="76.8" width="11.86" height="4.58"/><rect class="cls-4" x="38.82" y="76.8" width="5.93" height="4.58"/><rect class="cls-3" x="63.32" y="76.8" width="11.86" height="4.58"/><rect class="cls-4" x="63.35" y="76.8" width="5.93" height="4.58"/><rect class="cls-7" x="66.72" y="62.63" width="5.07" height="8.18"/><rect class="cls-7" x="42.22" y="62.63" width="5.07" height="8.18"/><rect class="cls-8" x="42.22" y="62.63" width="2.54" height="8.18"/><rect class="cls-8" x="66.74" y="62.63" width="2.54" height="8.18"/><rect class="cls-9" x="58.57" y="70.24" width="1.95" height="2.33"/><path class="cls-9" d="M81.28,57.5l.29.28h8.65L57,24.56,23.79,57.78h8.65l5.41-5.41v30H76.16v-30ZM31.63,55.84H28.49L57,27.32,85.52,55.84H82.37L57,30.47Zm20,24.57V63.6H62.35V80.41Zm22.55-30v25.4H65.92v2h8.29v2.63H64.3V61.66H49.71V80.41H39.79V77.78h8.3v-2h-8.3V50.43l8.53-8.53H58.87V40h-8.6L57,33.22Z"/><polygon class="cls-9" points="66.68 30.08 71.38 30.08 71.38 28.13 66.68 28.13 66.68 26.43 74.21 26.43 74.21 40.23 76.16 40.23 76.16 24.48 64.73 24.48 64.73 30.75 66.68 30.75 66.68 30.08"/><path class="cls-9" d="M65.75,71.78h7V61.66h-7Zm1.94-8.18h3.13v6.24H67.69Z"/><path class="cls-9" d="M41.25,71.78h7V61.66h-7V71.78Zm1.94-8.18h3.13v6.24H43.19V63.6Z"/><rect class="cls-9" x="23.8" y="80.41" width="11.92" height="1.95"/><rect class="cls-9" x="78.3" y="80.41" width="11.92" height="1.95"/><rect class="cls-10" x="51.16" y="44.97" width="1.95" height="1.95"/><rect class="cls-10" x="54.4" y="44.97" width="11.69" height="1.95"/><rect class="cls-10" x="47.92" y="44.97" width="1.95" height="1.95"/></g></g></svg>